<?xml version="1.0" encoding="UTF-8" standalone="no"?>
<!-- Created with Inkscape (http://www.inkscape.org/) -->

<svg
   xmlns:dc="http://purl.org/dc/elements/1.1/"
   xmlns:cc="http://creativecommons.org/ns#"
   xmlns:rdf="http://www.w3.org/1999/02/22-rdf-syntax-ns#"
   xmlns:svg="http://www.w3.org/2000/svg"
   xmlns="http://www.w3.org/2000/svg"
   xmlns:sodipodi="http://sodipodi.sourceforge.net/DTD/sodipodi-0.dtd"
   xmlns:inkscape="http://www.inkscape.org/namespaces/inkscape"
   version="1.1"
   width="1200"
   height="1200"
   id="svg2"
   xml:space="preserve"
   inkscape:version="0.48.3.1 r9886"
   sodipodi:docname="map26.svg"><defs
   id="defs137" /><sodipodi:namedview
   pagecolor="#ffffff"
   bordercolor="#666666"
   borderopacity="1"
   objecttolerance="10"
   gridtolerance="10"
   guidetolerance="10"
   inkscape:pageopacity="0"
   inkscape:pageshadow="2"
   inkscape:window-width="1309"
   inkscape:window-height="744"
   id="namedview135"
   showgrid="false"
   inkscape:zoom="0.5"
   inkscape:cx="497.29398"
   inkscape:cy="537.44155"
   inkscape:window-x="57"
   inkscape:window-y="24"
   inkscape:window-maximized="1"
   inkscape:current-layer="svg2" /><metadata
   id="metadata223"><rdf:RDF><cc:Work
       rdf:about=""><dc:format>image/svg+xml</dc:format><dc:type
         rdf:resource="http://purl.org/dc/dcmitype/StillImage" /><dc:title></dc:title></cc:Work></rdf:RDF></metadata>
<path
   d="m 92.400172,61.334343 -3.355338,2.323037 -1.419676,1.548707 -4.259034,0.258103 -1.548617,-3.226443 -3.613664,-2.064912 -3.355337,-0.903427 -2.32315,-6.065686 4.775239,-1.290581 -2.193987,-6.065708 12.905591,-5.033252 5.748917,-10.077889 -7.942679,-5.948017 -1.935883,1.571451 -2.229201,0.106284 -0.949937,1.137788 1.114091,2.111422 -8.130576,6.710988 -12.518548,3.484567 -7.321276,0.141411 -2.616244,0.761995 1.161574,-3.226443 -4.79898,-6.088476 -5.091055,-0.258103 -3.790087,2.991085 -4.611084,-1.805857 -8.165568,2.967365 -5.162504,-3.74267 -6.194693,3.871721 24.758849,38.059853 20.47244,31.786244 7.072014,7.96038 14.439719,-24.972233 4.818183,-2.110119 4.398451,1.240606 2.041672,3.725925 7.140653,2.799722 4.832583,0.971534 1.54214,-4.431588 -5.62957,-12.288653 0.005,-6.366914 0.005,-6.366913 -5.036004,-2.494826 z"
   id="Силино"
   inkscape:connector-curvature="0"
   sodipodi:nodetypes="cccccccccccccccccccccccccccccccccccccccccccc" /><path
   d="m 306.21061,570.2563 1.57069,0.0433 2.17562,1.41511 2.12858,2.30181 11.86357,-1.26545 4.74552,2.68908 16.76708,-0.79089 10.28188,-2.37274 4.3628,-8.15156 -4.53251,-0.56821 -4.91601,-3.60459 -1.82109,-4.64741 -0.27307,-4.74788 2.77813,-7.37684 5.72109,-12.98516 2.10175,-1.94094 6.48924,0.0641 3.04837,2.36098 2.58694,6.62583 5.29011,2.94506 8.6662,0.0973 12.33707,-8.32041 3.83006,-5.08763 0.33012,-12.00407 -0.30682,-20.04057 -8.20355,-5.03028 -11.86358,1.58181 -10.76343,-7.6848 -5.68353,-3.58122 -2.55421,-16.30438 -7.92865,-10.59615 -11.83054,-5.77857 -6.00495,-1.1365 -5.37815,41.92162 -3.74331,-0.31696 -1.00198,4.26787 3.32182,4.11271 -18.19101,33.05985 -6.01078,-0.15817 6.48542,6.16906 -4.11266,8.54179 z"
   id="Строгино"
   inkscape:connector-curvature="0"
   sodipodi:nodetypes="cccccccccccccccccccccccccccccccccccccccccc" /><path
   d="m 654.21075,444.86042 -15.19436,-9.02059 0.49192,-4.65884 -3.63458,0.50192 -3.20025,-1.50678 -0.14251,-7.68403 5.4556,3.10996 -2.12913,-17.28286 23.25995,-1.43924 20.43769,1.67033 -10.51128,12.58848 9.30846,4.49221 1.46013,15.58445 -0.73007,12.41103 -3.0027,1.07732 -1.6427,-4.13889 -7.76566,-2.5964 -5.11043,-1.09509 -2.455,-2.33151 -0.22369,-3.00262 1.4894,-2.47283 -0.90079,-2.82617 z"
   id="Ростокино"
   inkscape:connector-curvature="0"
   sodipodi:nodetypes="ccccccccccccccccccccccc" /><path
   d="m 587.7086,405.21338 -4.96145,4.19156 0.22973,3.53276 -3.62306,0.0854 -0.52581,-1.85048 -2.20337,1.89222 4.76563,8.47414 -10.41909,5.7781 -0.61497,6.16658 2.41118,2.69719 10.18111,-1.09936 -0.31398,-5.70608 12.02894,12.99185 2.27159,28.20408 -33.13499,-38.29276 2.07945,-7.88138 -0.38569,-4.34181 -4.15343,-15.28369 z"
   id="Марфино"
   inkscape:connector-curvature="0"
   sodipodi:nodetypes="ccccccccccccccccccc" /><path
   d="m 771.69545,503.6638 7.38314,2.12692 65.2117,-2.69192 0.23438,19.56584 -7.59065,-0.20719 -0.0115,10.75146 2.63177,0 -0.42632,45.25958 -20.06231,7.28972 -1.74839,-2.77269 -5.80765,-0.3872 -9.29215,5.67855 -20.77828,8.13065 -5.80766,-11.09897 -1.16135,-9.1631 -3.09746,-0.77434 -2.59271,-38.77545 2.86494,-18.65049 0.2019,-10.74411 z"
   id="Измайлово"
   inkscape:connector-curvature="0"
   sodipodi:nodetypes="cccccccccccccccccccc" /><path
   d="m 819.38214,615.76615 4.00092,12.38954 -5.93681,-0.90341 -0.7743,5.67855 -1.88806,-0.0703 -0.11754,2.99795 -1.83302,0.13963 -0.27259,1.7671 -1.66673,-0.0115 -1.32023,5.50175 -3.87177,0 2.2176,7.71296 65.99158,-23.15271 -1.29074,-4.64607 2.71019,-4.51703 -8.58428,-1.72491 4.26297,-15.39723 -22.68686,-6.39039 -0.67662,2.68709 1.93589,0.77433 -0.90348,4.12984 -2.19398,-1.03245 -1.93589,8.77592 -7.33905,-2.37468 z"
   id="Новогиреево"
   inkscape:connector-curvature="0"
   sodipodi:nodetypes="ccccccccccccccccccccccccc" /><path
   d="m 739.04656,615.55849 22.25975,-9.21355 17.68082,-5.8076 1.93588,-1.29056 0.54747,-2.81209 20.83846,-8.08253 9.15268,-5.65946 5.78151,0.31939 1.75196,2.81269 20.13708,-7.23942 0.43834,5.52451 -2.4702,6.10687 1.24234,3.80097 2.73991,-1.01342 7.16447,2.0353 -0.64537,2.81764 1.88805,0.79644 -0.85907,4.00432 -2.19055,-1.01389 -1.97645,8.62477 -7.31025,-2.30353 -17.90019,7.67175 4.01175,12.43021 -5.87737,-0.82957 -0.78991,5.63786 -1.86161,-0.0738 -0.12917,2.96831 -1.80671,0.12908 -0.25811,1.80681 -1.67778,0 -1.29051,5.42043 -4.00071,0.12904 2.32293,7.74347 -9.2252,2.83956 -6.19282,-4.65498 -10.17489,-3.1997 -6.61205,-2.13962 -12.71019,-13.34113 -1.56887,-1.29631 -16.11013,-8.13165 -3.07801,-2.0828 z"
   id="Перово"
   inkscape:connector-curvature="0"
   sodipodi:nodetypes="cccccccccccccccccccccccccccccccccccccccccc" /><path
   d="m 798.62818,653.88019 14.10205,12.11001 25.20216,14.4564 -5.86642,30.49755 -16.68376,-3.37738 -7.54342,-14.9312 -35.00714,15.17786 2.49482,-3.48324 -10.60114,-27.78636 -3.76098,-1.93755 24.2349,-7.69653 5.38696,-3.33535 1.28388,-7.19843 z"
   id="Рязанский"
   inkscape:connector-curvature="0"
   sodipodi:nodetypes="cccccccccccccc" /><path
   d="m 719.50928,685.78571 -4.38037,-3.19402 -25.83405,-14.46057 0.82381,-2.93092 2.42541,0.74073 1.08371,-4.13918 1.51017,0.099 0.30885,-6.45406 10.43735,9.49254 1.76176,0.67853 7.02665,-16.3351 -0.36493,-5.20167 -1.31223,-1.36356 -0.57849,-9.19605 4.3046,0.12245 -0.0336,-1.6039 12.75892,1.31133 4.48625,14.10306 6.47763,7.04503 11.76465,1.61023 9.24769,-26.86536 1.50371,1.28554 12.75096,13.35399 16.74653,5.39512 6.20528,4.56663 -6.84432,2.46395 -1.25408,7.24166 -5.32541,3.28528 -48.72246,15.48148 -1.82526,-3.83282 z"
   id="Нижегородский"
   inkscape:connector-curvature="0"
   sodipodi:nodetypes="ccccccccccccccccccccccccccccccc" /><path
   d="m 842.34631,768.58952 3.80173,-15.12692 -6.24482,-1.86499 -9.95301,3.00711 -1.92107,1.40294 -4.43216,-3.85316 0.21731,-3.25653 2.85441,0.17677 5.49031,-38.19307 5.78873,-30.41266 47.38292,27.31528 21.93986,13.80918 4.96291,4.94026 -4.14112,4.45818 10.27708,10.34736 -5.80764,6.06571 6.19491,5.16233 -5.64247,25.51927 -3.52074,3.26059 -31.4899,-24.26286 5.57641,22.02604 -13.68742,-0.17997 -8.0212,-8.55312 -10.45373,9.80838 -10.00395,-7.6075 z"
   id="Выхино-Жулебино"
   inkscape:connector-curvature="0"
   sodipodi:nodetypes="cccccccccccccccccccccccccc" /><path
   d="m 914.77519,664.09752 -1.79467,6.74726 1.56582,3.35552 10.73775,6.03995 10.73775,-1.1185 -0.44738,1.56592 1.11845,5.14514 3.13187,0.8948 7.1585,-2.23703 -0.67129,-1.34219 0.67129,-5.59255 4.47401,0.22369 1.11844,1.56592 9.61931,-2.01331 5.59245,-3.80294 5.81614,1.1185 7.1585,-4.25034 3.13187,3.80294 8.27695,-1.3422 0.44738,-1.78962 -2.90796,-2.68443 -2.4608,2.01331 -3.57926,-1.34219 1.34214,-6.71106 4.47423,0 1.11845,-1.11852 6.93481,2.68443 -0.4476,6.26366 1.78973,-0.67112 3.35553,-4.92143 4.474,3.80292 -1.566,1.11851 4.6979,-0.44739 4.2503,5.36885 3.3556,7.82956 -9.3956,10.9614 -10.51386,-0.67112 -2.46081,2.90812 0.44738,6.03997 -3.35556,9.39548 -10.06646,2.237 -10.51406,-0.22369 -12.30358,2.46071 -12.75095,0.44741 -6.26374,6.71105 1.78951,1.11851 -14.31677,15.65914 -15.37789,-12.77082 -4.85255,-4.91649 -23.16772,-14.52576 3.52668,-11.00609 1.96108,-31.90869 z"
   id="Косино-Ухтомский"
   inkscape:connector-curvature="0"
   sodipodi:nodetypes="ccccccccccccccccccccccccccccccccccccccccccccccccccccc" /><path
   d="m 623.8926,901.82923 -11.94226,-3.9848 -1.46762,4.15792 -27.9256,-9.12921 -4.38418,2.4451 -3.89301,-2.31 -2.46511,-1.75019 -2.21898,5.37235 -6.33065,2.30786 -1.4123,4.63883 1.49543,2.4361 3.13969,-2.2611 -0.94928,4.61767 2.90392,-0.40058 -2.49792,5.56923 0.63256,1.77646 -2.93806,1.67005 -0.38369,10.09812 -5.91464,1.45473 2.39848,5.80111 2.43432,-0.99277 2.43027,5.36799 3.375,0.25695 7.52946,-5.03654 5.06597,-0.24058 -0.0458,3.64863 11.86245,2.19184 1.2161,-0.95808 6.43782,1.50059 3.50864,-13.03071 19.01559,4.19561 12.57928,6.1016 8.40504,-13.23684 -6.92408,-6.11079 -6.33682,-20.06506 -6.63567,0.1714 z"
   id="Чертаново Центральное"
   inkscape:connector-curvature="0"
   sodipodi:nodetypes="ccccccccccccccccccccccccccccccccccccc" /><path
   d="m 566.65494,956.49458 -1.96806,17.05175 2.1294,3.77491 -3.54908,8.55009 -5.7323,1.55144 -20.27285,-9.13359 -9.55025,-2.83926 -18.3262,-6.45289 -4.76089,-0.82532 -4.4021,-1.23959 -10.84099,-4.64607 -12.77665,-8.64687 -17.16463,-25.55342 -3.16919,0.0156 -0.27682,-0.31313 3.09742,-3.06199 14.54492,-14.0633 16.80708,-26.75362 7.38569,7.08592 3.56401,1.24715 3.83462,-3.50769 -2.87061,-5.3851 1.2456,-3.99046 4.49013,-2.58511 3.22713,0.86921 2.77443,2.47179 7.95755,-2.9521 3.63403,-10.44331 8.9043,-10.37839 -0.52372,-3.8827 1.91302,-5.4051 2.69945,-0.25946 2.95501,2.05951 2.98351,1.68913 2.4622,-1.54055 2.34906,-10.047 4.48131,4.46881 3.40271,-0.95017 11.29836,5.50657 -1.40799,4.73576 4.12987,1.41962 -0.51621,10.32463 -5.29144,6.84007 -0.25811,3.09737 7.48521,3.22644 3.74284,-0.51623 -4.69655,14.15201 -2.27269,5.32844 -6.30344,2.30702 -1.42721,4.67564 1.51224,2.47239 3.14154,-2.2334 -0.95479,4.58425 2.91746,-0.407 -2.49946,5.51496 0.64537,1.80681 -2.9683,1.67775 -0.38726,10.06648 -5.93659,1.41963 2.45209,5.93666 2.45209,-1.03246 2.42504,5.36977 3.37213,0.24638 -1.9254,11.80665 4.25881,1.67774 -1.51421,3.51895 -0.67956,0.48185 z"
   id="Ясенево"
   inkscape:connector-curvature="0"
   sodipodi:nodetypes="cccccccccccccccccccccccccccccccccccccccccccccccccccccccccccccccccccc" /><path
   d="m 681.14824,903.10339 2.72536,0.931 3.60815,-4.77308 1.72739,-0.51735 -0.25165,20.43267 0.99465,4.31085 5.80319,2.15542 3.64762,3.64763 1.32649,1.82384 4.64228,0.49739 1.65812,4.31086 14.25889,-8.95332 32.95047,-9.39546 -3.27198,-14.14839 0.33162,-9.28491 2.15555,-1.16061 0.16581,-4.97406 -2.32136,-0.16579 -0.16582,-1.82381 2.8188,-4.97406 -0.59199,-3.79782 -6.04806,-0.016 -7.95069,4.3e-4 -3.64763,-1.98963 -12.10335,5.13985 -10.77731,-0.82902 -3.15019,4.14507 -4.64251,-0.6632 -0.19117,-10.65695 -3.02715,-2.4281 -0.0587,-2.65656 -2.72313,-0.26014 -0.30019,8.70647 -6.96364,12.93254 z"
   id="Орехово-Борисово Северное"
   inkscape:connector-curvature="0"
   sodipodi:nodetypes="ccccccccccccccccccccccccccccccccccc" /><path
   d="m 590.76263,1018.2346 2.48669,-0.012 4.92792,-7.7984 0.12916,-4.259 4.64608,-2.9683 6.45279,0.9034 1.41968,-29.68324 2.06504,-8.25969 2.06483,-4.64608 12.43016,-11.40479 7.74181,-12.74071 -12.55669,-6.09818 -18.95743,-4.17251 -3.53611,13.03233 -6.45394,-1.49696 -1.25589,0.95206 -11.88137,-2.20151 0.0187,-3.64722 -4.96705,0.27316 -7.54739,4.97286 -1.85161,11.82571 4.24867,1.67464 -1.53483,3.58948 -0.74195,0.43866 -1.42881,0.0396 -1.96579,16.99379 2.25154,3.82735 -5.35595,12.793 22.2411,8.51781 7.32086,15.80014 z"
   id="Чертаново Южное"
   inkscape:connector-curvature="0"
   sodipodi:nodetypes="ccccccccccccccccccccccccccccccc" /><path
   d="m 478.71689,812.78631 -0.30498,-5.49855 -2.83935,-0.90341 -2.32315,-4.38794 -4.64607,-6.32384 -6.58196,-1.8068 -3.61345,1.03245 -4.00092,0.51623 -2.58103,-1.67774 -2.9683,-7.87252 -3.35556,-6.71101 -4.51713,-3.61362 -2.58104,0.25813 0.64515,-5.93666 2.19399,-2.19398 -3.66715,-3.46093 -19.43406,22.94863 -21.21682,14.96528 -4.11574,7.28743 -6.70667,2.81995 2.87225,8.22425 6.1947,10.06648 19.22967,30.58667 -0.58078,6.00116 0.62208,1.24152 42.28958,-36.79688 z"
   id="Тропарёво-Никулино"
   inkscape:connector-curvature="0"
   sodipodi:nodetypes="ccccccccccccccccccccccccccc" /><path
   d="m 500.34331,786.18485 -16.18137,-12.54852 -0.73797,-0.40806 -1.8114,-6.40634 -3.9933,-3.9225 -1.17639,-4.89761 -3.91652,-1.62204 -6.74713,0.24307 -1.15758,1.98054 -3.76618,-1.11427 -3.45386,-2.87241 -1.78519,2.41541 3.82392,7.27943 -6.06574,8.13064 -4.64608,0 -2.19399,-6.84005 -5.42039,-4.77516 -3.51975,3.33141 3.67842,3.49962 -2.20161,2.23464 -0.59697,5.88647 2.51838,-0.23156 4.53901,3.57392 3.35402,6.74438 2.95691,7.87285 2.59725,1.64812 3.93345,-0.50317 3.6005,-1.09476 6.75077,1.90577 4.53104,6.19383 2.38671,4.40393 2.91271,0.97323 0.16021,5.45672 1.76398,-2.4065 z"
   id="Проспект Вернадского"
   inkscape:connector-curvature="0"
   sodipodi:nodetypes="ccccccccccccccccccccccccccccccccccc" /><path
   d="m 500.40993,786.24006 7.37104,6.76652 3.23566,5.43586 9.78173,-0.38493 4.08183,-11.8305 3.86402,2.47645 9.42131,5.54948 -19.1005,30.58666 -17.55189,-3.48454 -2.19399,4.12982 -2.71019,-2.32303 -1.54862,2.58116 1.93588,1.93586 -10.05105,13.8526 -5.56495,-4.56045 -12.13493,17.17571 -14.3098,-9.7835 -5.5103,-6.42484 29.29609,-25.12469 z"
   id="Обручевский"
   inkscape:connector-curvature="0"
   sodipodi:nodetypes="cccccccccccccccccccc" /><path
   d="m 671.63175,1010.8782 -11.72926,-0.8789 -1.22504,1.2248 -4.37479,-1.5749 -44.7239,-5.5748 1.32665,-29.62318 2.06473,-8.29215 1.60836,-3.75869 0.47443,-0.86326 12.4754,-11.38647 1.42483,-2.41711 6.23109,-10.39488 5.21091,-8.18556 3.17031,-5.01981 4.14884,3.97042 4.31347,13.9971 14.52459,43.92406 1.22504,11.72473 3.85412,13.1287 z"
   id="Бирлюлёво Западное"
   inkscape:connector-curvature="0"
   sodipodi:nodetypes="cccccccccccccccccccc" /><path
   d="m 455.95585,927.69859 -0.77454,-0.51623 -0.51621,-6.58196 -35.49081,-52.52646 -4.25881,0.64527 -0.38727,-0.0258 34.8857,-30.70811 5.38036,6.34203 14.58359,10.0665 22.58501,16.26127 4.25882,0.38717 -5.80744,12.77673 -16.79655,26.82759 z"
   id="Теплый Стан"
   inkscape:connector-curvature="0"
   sodipodi:nodetypes="cccccccccccccc" /><path
   d="m 484.18627,773.61552 16.10133,12.4655 7.54938,6.88133 3.2264,5.42043 9.67941,-0.38717 4.12988,-11.87331 3.35534,2.4521 11.84025,-16.16184 -7.0595,-7.0575 -4.52265,5.79655 -9.80836,-7.48534 -11.87318,-12.64766 z"
   id="Ломоносовский"
   inkscape:connector-curvature="0"
   sodipodi:nodetypes="ccccccccccccc" /><path
   d="m 576.52333,877.08586 -4.68832,14.16892 2.46671,1.72729 3.87176,2.32303 4.38797,-2.4521 27.87646,9.03404 1.41945,-4.12984 12.00234,4.0008 -0.2581,-3.7427 6.57802,-0.11747 -4.31343,-22.47572 -3.057,-15.70778 -0.88514,-4.80429 -5.54955,1.41963 0.5162,3.61363 -17.80999,-1.54869 -18.3262,-1.93588 -12.11537,-8.47062 -1.38797,4.70186 4.14091,1.44526 -0.55641,10.3452 -5.28281,6.83497 -0.27348,3.06236 7.48511,3.22083 z"
   id="Чертаново Северное"
   inkscape:connector-curvature="0"
   sodipodi:nodetypes="ccccccccccccccccccccccccc" /><path
   d="m 568.62323,847.94093 12.26044,8.5178 18.75192,1.94446 -0.81299,-33.30546 9.80836,-14.84166 -4.3254,-0.72035 -7.27246,-1.30715 -2.85657,-1.97326 -4.90418,-4.38798 -2.32293,2.58116 -16.51947,-0.9034 -12.76852,18.76399 -8.2534,16.59934 4.50244,4.51548 3.48473,-1.03245 z"
   id="Зюзино"
   inkscape:connector-curvature="0"
   sodipodi:nodetypes="cccccccccccccccc" /><path
   d="m 753.35935,877.21855 3.04278,-0.88492 1.41945,2.32304 3.35556,-0.25812 1.41967,-1.67776 9.80836,0.9034 4.64608,-0.9034 4.00093,1.8068 4.00071,9.67934 5.68326,6.07749 18.81348,11.36316 13.26702,6.91595 1.72776,-2.41679 -2.19398,-3.48457 9.80858,-10.0665 -6.06576,-5.67853 -5.93681,-27.48928 1.03263,-10.19555 1.41969,-7.35629 -1.57171,-6.09262 -2.42923,-1.90898 -3.4845,0.12908 -42.33089,20.64921 -22.19796,-1.54868 0.90348,10.0665 -2.32315,2.58115 4.25903,5.29137 z"
   id="Братеево"
   inkscape:connector-curvature="0"
   sodipodi:nodetypes="cccccccccccccccccccccccccccc" /><path
   d="m 749.34416,970.50106 8.64679,-5.42043 18.84241,-14.32539 8.00163,-5.93666 31.23201,-31.1029 6.06553,0.38718 0.64537,-1.54871 -13.2201,-6.86308 -3.0958,4.11289 -4.59155,1.58868 -6.19469,4.51701 -2.83936,0.51625 -6.18017,3.31551 -30.32295,0.60531 -2.08494,-2.75932 -33.03895,9.67933 -14.12602,8.67377 5.09785,1.58476 0.30616,2.90224 3.31406,0.39386 2.72212,3.85074 -0.51348,2.12019 4.85092,3.05034 6.10034,-0.22909 1.15643,3.34747 5.38458,0.78258 1.69281,2.27833 4.77901,1.57129 0.79411,4.2792 z"
   id="Орехово-Борисово Южное"
   inkscape:connector-curvature="0"
   sodipodi:nodetypes="cccccccccccccccccccccccccccccc" /><path
   d="m 622.83867,859.53953 -0.81004,-4.59697 -1.23981,-9.83713 -0.43609,-22.53896 2.62141,1.50823 8.71341,-0.20395 0.92214,-0.0244 4.05527,4.08466 7.45894,-9.10684 24.16793,19.30787 3.75043,-7.74973 8.03806,-1.04195 27.60284,21.77746 17.80115,7.43697 5.88474,1.21599 17.51904,-2.72217 1.66577,0.14768 0.85504,9.92662 -2.26754,2.63737 4.26874,5.3093 -0.0885,2.1471 -13.92897,-0.0307 -3.69373,-1.99263 -12.08188,5.05685 -10.79728,-0.73931 -3.2109,4.11951 -4.52331,-0.63832 -0.18684,-10.63487 -3.01188,-2.42778 -0.0735,-2.68304 -40.86517,-4.04823 -0.72448,1.7862 -15.70852,-2.47108 -0.45676,-3.99839 -5.81547,0.88281 -5.13145,0.95167 z"
   id="Москворечье-Сабурово"
   inkscape:connector-curvature="0"
   sodipodi:nodetypes="ccccccccccccccccccccccccccccccccccccc" /><path
   d="m 605.98842,804.66031 -5.76002,-5.35786 -1.41354,-6.78366 -0.35872,-4.06077 2.88478,-2.36359 5.06416,-5.91192 2.16648,-5.02061 1.3159,-3.75614 -1.35334,-7.33404 -5.96923,1.2384 -4.74748,-2.31017 0.26745,-10.04611 -3.84994,-4.19976 9.17302,5.27153 7.25539,-0.23779 8.59042,-3.27141 5.58811,39.45829 -4.56742,12.39154 0.062,21.08769 0.0709,4.19361 0.34387,17.41242 1.16614,9.82572 -5.58818,1.4169 0.55471,3.62806 -6.66418,-0.61913 -10.53285,-0.90562 -1.0661,-32.84805 10.0471,-15.13751 -9.00785,-1.7498 1.87273,-2.79748 4.12045,-0.0964 0.33524,-1.11637 z"
   id="Нагорный"
   inkscape:connector-curvature="0"
   sodipodi:nodetypes="ccccccccccccccccccccccccccccccccc" /><path
   d="m 669.85588,790.28217 5.25837,-62.19112 6.38486,1.72922 4.38953,4.12354 10.50847,1.19718 3.72451,0.7981 21.81472,9.44427 7.98108,9.7103 -9.5773,24.74133 -16.7635,8.7747 -9.29863,5.15842 -6.66873,3.93949 -4.25428,5.56046 -3.27792,26.05132 -8.03937,1.02862 -2.76744,5.64479 -5.89948,-4.73739 -0.68091,-1.49619 -1.98478,-11.84894 8.59248,-19.61955 z"
   id="Нагатинский Затон"
   inkscape:connector-curvature="0"
   sodipodi:nodetypes="ccccccccccccccccccccc" /><path
   d="m 594.11915,748.75222 -5.74856,5.39567 -13.24239,21.6343 -8.35314,4.9224 0.89498,4.17658 -2.97746,4.41105 10.25917,6.15571 -4.43987,8.06995 16.41902,0.90329 2.33475,-2.58529 4.94501,4.39835 2.84736,1.98312 2.54233,0.45891 1.90602,-2.81603 4.11464,-0.10824 0.32367,-1.06611 -5.72435,-5.32009 -1.48516,-6.8288 -0.3431,-4.02615 2.91816,-2.43753 5.0489,-5.87331 2.15271,-5.00456 1.35487,-3.77993 -1.34222,-7.31142 -5.84844,1.26969 -4.74553,-2.31768 0.27552,-10.03656 z"
   id="Котловка"
   inkscape:connector-curvature="0"
   sodipodi:nodetypes="cccccccccccccccccccccccccccc" /><path
   d="m 305.51307,801.90409 -10.45339,3.22855 -9.47936,11.93769 0.82067,-6.91562 -6.9319,-4.83982 -1.30694,7.85468 -0.92113,3.92031 -0.36071,8.35677 -5.69618,1.82585 -5.62829,6.34006 -6.42768,15.22617 -2.51629,9.72399 2.69733,4.51205 5.95205,8.27944 8.43067,4.22273 9.28822,-5.6412 10.11086,4.07329 2.60111,9.36159 7.37842,2.94474 5.04272,7.01905 8.21329,-3.16549 11.06867,-12.43362 -9.35956,-1.3926 -4.87961,-8.71442 0.29353,-10.1798 -1.57076,-10.02106 3.16727,-9.99147 -10.39974,-2.16633 0.51961,-9.53625 1.22243,-7.74143 -0.10796,-14.85994 z"
   id="Новопеределкино"
   inkscape:connector-curvature="0"
   sodipodi:nodetypes="cccccccccccccccccccccccccccccccc" /><path
   d="m 327.82907,887.48524 9.31608,-1.30059 6.49561,-3.96951 9.75428,2.45298 5.43408,-8.77097 3.84323,-8.85967 2.381,-9.43111 -0.047,-14.21167 -4.67847,-6.17568 4.68769,-8.37647 -3.49773,-5.92305 4.52632,-5.58527 9.37149,0.47159 7.67738,-0.43519 2.1333,-2.357 0.79187,-3.0184 -5.59041,-6.62427 -14.68757,-32.91182 -11.91131,7.3449 -3.85702,8.32704 3.13701,8.69419 7.65275,6.49862 -4.14513,7.3061 -15.7164,5.21832 -9.88496,-3.32619 -6.75597,-6.93518 -6.74865,4.74684 -2.35419,9.2968 -9.4933,1.7138 -1.10574,14.09484 10.56003,1.99673 -3.13991,10.00694 1.56249,9.92104 -0.35234,10.26935 4.84947,8.65929 9.41179,1.41493 -3.63863,4.15471 -7.03758,8.01945 z"
   id="Солнцево"
   inkscape:connector-curvature="0"
   sodipodi:nodetypes="ccccccccccccccccccccccccccccccccccccccc" /><path
   d="m 539.19793,1034.0421 5.93659,3.3555 -0.49237,7.6054 2.45799,1.0174 13.13265,0.8978 3.76783,4.1477 0.26225,5.0391 2.19399,1.2906 14.29765,-17.1587 4.51713,-5.6786 15.87411,-9.2921 -2.58125,-6.9691 -0.35244,-7.7151 -4.939,7.7151 -2.58103,0 0.38705,-3.7427 -7.25055,-15.83443 -22.28726,-8.52623 1.63821,-4.28609 -5.58058,1.67368 -20.44519,-9.21463 -9.344,-2.81085 -3.3243,6.99223 4.12986,4.38797 2.83914,5.80762 -6.83985,3.87172 -8.51784,-2.32304 -2.83936,5.1623 3.87177,1.03245 -1.80694,1.5487 4.25904,-0.1291 1.16156,2.7103 -4.00092,6.84 7.09816,3.3555 2.58125,-1.5487 2.83936,1.9359 -0.38727,3.2264 5.16229,1.9359 -1.67779,9.034 7.22733,2.8393 z"
   id="Северное Бутово"
   inkscape:connector-curvature="0"
   sodipodi:nodetypes="ccccccccccccccccccccccccccccccccccccccccc" /><path
   d="m 669.23307,836.01669 -6.01055,-4.85325 -0.64537,-1.41964 -1.93589,-11.87331 8.51785,-19.61676 3.07824,-37.3417 -33.51002,3.34453 -7.40534,-2.7311 -2.85425,-7.92176 -1.06242,-5.76241 -8.13339,2.67685 5.6204,39.4759 -4.53366,12.27702 -0.0333,20.27465 2.66885,1.49842 9.64143,-0.23699 4.12986,4.12986 7.35628,-9.1631 24.12991,19.2649 z"
   id="Нагатино-Садовники"
   inkscape:connector-curvature="0"
   sodipodi:nodetypes="cccccccccccccccccccc" /><path
   d="m 490.45691,883.87267 7.44256,7.04447 3.48449,1.29058 3.74283,-3.48457 -2.82751,-5.39678 1.27867,-4.02442 4.51714,-2.58116 3.2264,0.9034 2.83935,2.45212 7.87247,-2.96835 3.61366,-10.45366 8.90489,-10.32463 -0.5162,-3.87172 1.93587,-5.42043 2.7102,-0.2581 2.9683,2.06491 2.96829,1.67776 2.45209,-1.5487 2.32713,-10.02736 -16.52346,-3.91087 -13.81713,-10.17198 -17.5363,-3.46877 -2.19102,4.16781 -2.7108,-2.36401 -1.52593,2.5528 1.9622,1.92005 -10.12557,13.94603 -5.51413,-4.52857 -12.13566,17.12299 22.7283,16.423 4.33054,0.38867 z"
   id="Коньково"
   inkscape:connector-curvature="0"
   sodipodi:nodetypes="cccccccccccccccccccccccccccccccc" /><path
   d="m 622.83128,859.62594 10.28345,0.75995 10.87105,-1.87358 0.49412,4.0488 15.81487,2.59221 0.73011,-1.84396 37.99875,3.70461 -0.41281,8.71151 -6.86922,12.95347 -10.64701,14.42532 -4.83732,5.80407 -17.55767,6.97538 -10.44795,4.58763 -4.68096,3.6258 -7.32138,-6.33602 -6.06575,-20.00393 z"
   id="Царицино"
   inkscape:connector-curvature="0"
   sodipodi:nodetypes="ccccccccccccccccc" /><path
   d="m 700.26195,1004.2298 6.1947,1.0325 2.45208,-6.96916 40.39523,-27.74742 -6.58196,-8.64685 -0.77431,-4.2589 -4.77524,-1.54871 -1.67778,-2.32303 -5.42038,-0.77436 -1.16158,-3.35549 -6.06574,0.25813 -4.90418,-3.0974 0.5162,-2.19399 -2.71019,-3.74267 -3.35534,-0.38717 -0.25811,-2.96831 -5.15543,-1.46125 -1.64658,-4.39454 -4.62181,-0.48757 -1.33795,-1.85616 -3.69756,-3.59245 -5.84798,-2.10371 -0.99915,-4.16182 0.28875,-19.8448 0.0454,-0.81502 -1.67779,0.64531 -3.61367,4.64607 -2.73934,-0.96218 -4.87502,5.86636 -17.57399,7.0098 -10.40848,4.52037 -4.70018,3.60143 4.16083,3.96895 18.5843,57.43066 1.29051,12.5186 4.38797,12.64768 10.19563,0.7743 z"
   id="Бирюлёво Восточное"
   inkscape:connector-curvature="0"
   sodipodi:nodetypes="cccccccccccccccccccccccccccccccccccccc" /><path
   d="m 754.20821,917.56006 2.14869,2.76262 30.29882,-0.59052 6.14412,-3.31733 2.87893,-0.52727 6.20276,-4.51336 4.57045,-1.60186 3.08259,-4.08816 -18.81101,-11.37623 -5.68688,-6.06257 -4.03612,-9.71058 -3.97332,-1.78651 -4.62543,0.89905 -9.805,-0.86374 -1.3996,1.63807 -3.37205,0.26562 -1.41099,-2.29808 -3.02748,0.84904 0.58927,3.82019 -2.81899,4.97359 0.16071,1.7924 2.33772,0.13296 -0.17972,5.02845 -2.13927,1.16946 -0.31098,9.27261 z"
   id="Зябликово"
   inkscape:connector-curvature="0"
   sodipodi:nodetypes="cccccccccccccccccccccccccc" /><path
   d="m 519.0843,824.84711 13.80541,10.13773 16.50385,3.92206 8.25973,-16.64846 12.77666,-18.71335 4.38797,-8.13064 -29.42507,-17.55185 -5.31753,-5.4224 -11.64887,15.97112 9.85881,5.83889 z"
   id="Черемушки"
   inkscape:connector-curvature="0"
   sodipodi:nodetypes="ccccccccccc" /><path
   d="m 832.21365,896.52954 -3.90326,-3.57467 -2.19341,-2.02587 -5.92726,-27.45833 1.04788,-10.28062 1.38485,-7.29135 -1.54276,-6.1159 10.10861,-20.51642 5.61678,0.15279 30.07044,0.77436 24.81418,0.4375 -1.8419,6.22798 -6.32409,10.62824 -16.13198,18.71338 0.25809,3.09739 -1.54883,2.19396 -3.30786,2.32499 z"
   id="Капотня"
   inkscape:connector-curvature="0"
   sodipodi:nodetypes="cccccccccccccccccc" /><path
   d="m 831.12186,819.1767 60.66159,1.404 -0.12894,-12.90577 -7.87247,-28.52175 -13.85258,-0.1603 -7.9659,-8.57716 -10.44595,9.899 -10.06645,-7.74347 0.82003,-3.90184 -12.42723,-4.17036 -4.52501,3.8133 -3.87177,-5.03326 -3.35556,0.90341 -13.29286,-4.64607 -2.06505,1.67773 -6.71089,-3.48455 -4.38797,-4.12984 -1.93589,-5.16231 -2.58125,1.80681 -1.67778,-2.06493 -2.45209,4.2589 -8.6108,-3.2027 -6.87605,0.7506 -4.64607,-3.74267 -6.1947,0.25811 1.93589,6.45289 -1.67778,10.19557 -2.83935,12.38952 -7.09817,22.19792 -1.88751,6.09896 -6.17778,8.79708 10.13033,10.05278 11.43628,-9.26999 2.73158,0.0592 15.61874,-13.27085 14.88043,-4.78922 4.10526,3.07434 10.48357,-0.13961 11.92809,10.15485 4.93626,9.92052 z"
   id="Люблино"
   inkscape:connector-curvature="0"
   sodipodi:nodetypes="ccccccccccccccccccccccccccccccccccccccccc" /><path
   d="m 821.05342,839.7816 10.06401,-20.57733 -6.02307,-0.73007 -4.92786,-9.85582 -11.86357,-10.22085 -10.5858,0.18251 -4.01545,-3.10275 -14.69242,4.74538 -15.78763,13.50613 -2.64651,-0.18251 -11.5896,9.30827 -10.13843,-10.10717 -23.07929,28.72372 -8.02576,9.65094 17.85356,7.45675 5.70806,1.12933 11.02957,-1.82957 6.48592,-0.88829 23.94907,1.64831 42.40894,-20.67738 3.46527,-0.1055 1.27068,1.01998 z"
   id="Марьино"
   inkscape:connector-curvature="0"
   sodipodi:nodetypes="ccccccccccccccccccccccc" /><path
   d="m 678.66846,618.62785 13.67566,5.18241 15.83523,11.22853 4.75043,7.62965 -0.57587,-9.21316 4.31869,0.14394 0,-1.5835 12.81218,1.29562 4.46262,14.10763 6.47804,7.05383 11.66022,1.5835 9.31912,-26.82227 -16.10621,-8.09118 -3.09927,-2.13811 -3.31098,-3.62011 -1.63006,-7.12159 0.28805,-5.61427 3.74283,-13.96367 -0.47346,-3.3451 -9.36521,-21.08136 -19.5283,18.3803 -5.75827,-5.90217 -4.17478,2.44726 -4.89435,10.22083 0,3.88681 -1.58347,3.74285 -3.45501,3.02306 -11.51652,0 -1.58348,4.17472 2.30326,10.0769 z"
   id="Лефортово"
   inkscape:connector-curvature="0"
   sodipodi:nodetypes="ccccccccccccccccccccccccccccccc" /><path
   d="m 549.61721,402.74321 11.65801,1.99007 -0.6505,-5.78166 -0.17392,-8.1162 -10.19087,1.06237 0.92723,-11.63017 -5.24756,-4.49964 4.41906,-3.92676 -13.47639,-30.24405 -9.65123,4.65889 -1.43957,-7.62965 -16.46774,5.62955 -4.30746,7.02855 37.25701,35.14194 z"
   id="Бескудниковский"
   inkscape:connector-curvature="0"
   sodipodi:nodetypes="ccccccccccccccc" /><path
   d="m 576.66759,490.82208 -7.34123,-6.7179 -2.38091,-13.65698 -4.51713,-9.16309 -0.51622,-22.06886 3.89844,-14.88986 -0.36716,-4.25514 -4.14622,-15.30409 -11.68343,-2.01267 -8.6523,0.7197 -5.03705,1.45959 6.75728,7.74556 -16.89406,11.48404 -10.3692,6.98821 -0.95136,3.48858 1.53554,0.89344 -1.79902,4.41578 -7.0049,3.26259 0.48819,9.722 0.44768,11.84827 4.04842,4.62708 4.01939,9.63393 1.57292,4.95764 11.62242,10.87979 -1.53426,1.93446 9.55037,3.17509 z"
   id="Тимирязевский"
   inkscape:connector-curvature="0"
   sodipodi:nodetypes="ccccccccccccccccccccccccccc" /><path
   d="m 576.26406,527.61248 -4.5436,-5.80032 -4.33435,-28.75873 9.36769,-2.2151 -7.35626,-6.84007 -2.43033,-13.54881 -4.4683,-9.13755 -0.53896,-22.10665 1.80627,-6.88069 44.93535,51.89336 -14.33323,8.33434 0.33943,2.09855 -9.34625,1.85042 2.74926,15.76066 -7.87247,9.03404 -1.23443,2.62235 -1.16491,2.17148 z"
   id="Бутырский"
   inkscape:connector-curvature="0"
   sodipodi:nodetypes="cccccccccccccccccc" /><path
   d="m 634.9588,515.35928 0.13003,14.05538 -23.0489,-3.23668 0.92796,14.09983 -2.47555,6.78654 -2.96932,0.15004 -0.40447,1.19977 -10.5463,-5.78364 -2.57264,0.581 -4.18181,-15.53418 -13.44621,-0.0307 1.5521,-1.53948 2.35002,-4.66311 8.04378,-9.09938 -2.91691,-15.82783 9.42132,-1.80681 -0.38727,-2.19398 14.3255,-8.25969 5.67849,9.93744 17.80999,19.48771 z"
   id="Марьина Роща"
   inkscape:connector-curvature="0"
   sodipodi:nodetypes="ccccccccccccccccccccc" /><path
   d="m 659.45053,436.35199 0.28532,0.75014 0.56941,1.97843 -1.48121,2.45889 0.25876,3.0148 2.41478,2.32379 5.10578,1.18952 7.80982,2.52639 1.62117,4.14232 3.10081,-0.98031 -1.00452,3.22419 -2.23473,8.46822 -7.76922,16.48497 -13.88012,29.36691 0.0983,22.53351 -4.88997,-4.67751 -2.23345,-4.6285 -7.51508,-5.28343 -4.69957,-3.86502 0.21009,-12.53862 5.71772,-34.65928 13.31119,-23.30329 z"
   id="Алексеевский"
   inkscape:connector-curvature="0"
   sodipodi:nodetypes="ccccccccccccccccccccccc" /><path
   d="m 665.37941,661.33649 5.99285,-1.98881 5.95222,13.11125 9.97603,-5.8039 1.76265,1.34362 25.82594,14.50997 -25.8455,13.13576 10.61283,22.89706 3.93287,1.71751 -7.18983,14.85002 -4.63234,-0.59174 -5.85781,-0.5882 -4.36306,-4.15718 -6.38799,-1.7339 1.09498,-11.04216 -5.29301,-27.92483 -0.18235,-14.6012 z"
   id="Южно-Портовой"
   inkscape:connector-curvature="0"
   sodipodi:nodetypes="cccccccccccccccccc" /><path
   d="m 412.02478,366.865 9.82363,27.72328 -50.4142,9.5341 -16.66275,-3.64933 -18.32332,-2.71195 7.89003,-22.80283 10.24541,-15.09264 36.11968,-23.15141 2.68445,6.39544 12.57524,10.88244 5.60083,2.92166 z"
   id="Северное Тушино"
   inkscape:connector-curvature="0"
   sodipodi:nodetypes="cccccccccccc" /><path
   d="m 421.87274,394.6325 -50.448,9.53509 -8.61626,-1.86382 -8.02731,-1.76966 -18.34561,-2.74932 -1.64936,4.96969 2.39046,17.06829 0.1999,7.87904 0.0305,9.06981 11.88252,3.48157 7.11942,2.07415 3.49225,-2.15364 5.40952,-5.14107 1.65453,-2.87912 10.28715,-0.98556 2.81535,3.91144 6.52076,-3.06424 28.27304,1.80893 5.2594,-0.37838 6.23487,-4.12357 5.14735,-4.69546 -1.45553,-0.92152 2.05238,-3.15741 -6.02416,-13.82109 z"
   inkscape:connector-curvature="0"
   id="Южное Тушино"
   sodipodi:nodetypes="ccccccccccccccccccccccccc" /><path
   d="m 439.4524,447.66743 -0.33824,2.95714 3.82481,2.29039 3.34764,-0.37828 10.75194,-1.25082 0.78619,7.42603 -1.99702,2.67903 -4.33281,9.82784 -0.0258,1.25168 -16.97563,9.24309 -17.72293,4.1002 -11.88175,-5.70954 -3.447,14.74649 -8.27837,-5.06706 -11.77146,1.62211 -10.80601,-7.67967 -5.65448,-3.56111 -2.5188,-16.25766 -7.96253,-10.64117 -11.81302,-5.77996 -5.17892,-0.93986 -0.13582,-9.69805 19.11794,5.59239 3.54749,-2.2477 5.37095,-5.16167 1.62415,-2.81608 10.20736,-0.97101 2.88368,3.8676 6.51963,-3.0745 13.13563,0.71606 14.44646,1.25249 6.02194,-0.45664 6.26149,-4.17488 5.09936,-4.74355 1.94788,-0.67782 6.06736,13.0309 2.48491,7.42489 z"
   id="Покровское-Стрешнево"
   inkscape:connector-curvature="0"
   sodipodi:nodetypes="cccccccccccccccccccccccccccccccccccccc" /><path
   d="m 401.46595,494.8623 3.48797,-14.66457 11.72393,5.7627 17.80599,-4.21036 16.96422,-9.25196 1.95699,13.24253 18.83317,40.1987 0.31831,3.81156 -2.4765,2.48991 -2.84951,3.05475 -2.16437,0.37856 -10.36566,2.51095 -6.37857,-1.6907 -12.21575,-1.45116 -24.64139,-6.41375 -10.03225,-1.7209 0.36267,-12.05592 z"
   id="Щукино"
   inkscape:connector-curvature="0"
   sodipodi:nodetypes="cccccccccccccccccc" /><path
   d="m 386.7074,567.85297 13.09197,-5.20476 8.67604,-0.63272 16.0377,26.02817 -1.84047,8.41315 -7.88722,12.61973 -7.36164,4.73241 -9.99047,2.62909 -6.83582,4.4695 -1.31442,6.04693 10.77931,10.51643 7.62443,3.41784 8.93884,-0.52583 9.4649,-4.46948 8.67605,-9.4648 3.41769,-8.67606 1.05163,-8.93895 -0.2628,-18.92963 0.80873,-3.70751 2.87197,-4.44273 12.61978,-0.86195 15.9311,9.01219 1.63063,3.15491 8.67606,5.71082 4.26998,3.68076 9.39936,-7.32697 -4.17341,-5.29526 -5.58282,-10.67639 -8.59227,-20.00843 -3.94371,-29.70894 -0.32225,-0.0958 0.0411,0.41238 -5.39848,5.59144 -12.53263,2.89212 -6.43673,-1.69736 -12.18042,-1.43915 -24.29059,-6.35795 -2.955,-0.50187 -7.38429,-1.29003 -3.82409,5.11651 -11.95408,8.29074 -8.86913,0 -5.6224,-2.99367 -2.42549,-6.5349 -3.135,-2.42554 -6.36275,0 -1.92805,1.73528 -5.78419,12.9181 -2.89232,7.51951 0.22234,4.63769 1.80606,4.65828 4.91289,3.62219 z"
   id="Хорошево-Мневники"
   inkscape:connector-curvature="0"
   sodipodi:nodetypes="ccccccccccccccccccccccccccccccccccccccccccccccccccccc" /><path
   d="m 390.2548,622.04103 -6.41871,-2.08958 -1.1475,0.38252 -10.5752,11.25401 -62.02491,-54.5919 0.009,-5.02425 1.99463,2.08585 11.8574,-1.28468 4.72247,2.71051 16.74833,-0.74807 10.47237,-2.40062 4.2647,-8.16296 26.59481,3.86247 13.11344,-5.22313 8.52195,-0.64929 15.87303,25.89192 -1.713,8.27819 -7.94972,12.65099 -7.17414,4.82614 -9.99047,2.62912 -6.83582,4.46947 z"
   id="Крылатское"
   inkscape:connector-curvature="0"
   sodipodi:nodetypes="cccccccccccccccccccccc" /><path
   d="m 328.13713,387.78579 -10.22995,4.13389 -1.20754,-9.05024 2.58452,-10.51472 0.25008,-10.61433 -12.37352,0.37896 -14.83682,3.43088 -19.49552,14.41825 -2.03987,17.85351 -9.31905,10.03621 11.29095,4.69871 7.91223,5.59761 -9.21477,5.47841 2.34387,9.87516 6.56224,10.1665 1.80577,17.10489 8.65629,1.57715 1.70692,-7.18602 5.76545,5.08299 9.10454,-11.59574 15.53566,-4.657 14.49379,2.51436 -0.34463,-26.60481 -2.32827,-17.15325 3.66048,-11.18947 z"
   id="Митино"
   inkscape:connector-curvature="0"
   sodipodi:nodetypes="cccccccccccccccccccccccccc" /><path
   d="m 355.9292,326.54187 -3.80337,-5.53594 -3.2268,-14.73312 -5.51311,-15.87297 -10.04905,-3.75897 -2.28225,-23.02835 -7.44138,-1.97947 -6.23442,3.88465 -8.77557,7.46777 -2.46234,7.63542 -3.81608,6.34309 -1.04997,5.6242 1.29168,8.65417 8.73303,1.29109 4.75163,6.11548 -4.71236,7.13724 -0.38753,8.45249 1.54126,8.64955 8.85428,5.41797 13.06127,10.44454 10.47768,5.6711 9.53321,5.56391 20.81997,-13.46552 -12.00256,-8.61617 -8.98111,-3.55238 z"
   id="Куркино"
   inkscape:connector-curvature="0"
   sodipodi:nodetypes="cccccccccccccccccccccccccc" /><path
   d="m 390.77246,336.69414 4.61592,-3.24826 1.94169,-6.01903 8.93148,2.13579 7.37816,-1.16498 3.90261,0.14177 6.19379,5.10061 3.68898,4.6599 25.6295,44.26896 1.74728,-0.97081 9.0957,14.13932 -6.37724,3.72358 -18.63973,1.55329 -12.84525,5.35218 -13.92235,-39.71849 -0.45431,-9.84457 -5.75536,-3.0291 -12.41933,-10.75326 -2.71154,-6.32694 z"
   id="Левобережный"
   inkscape:connector-curvature="0"
   sodipodi:nodetypes="cccccccccccccccccccc" /><path
   d="m 474.36512,374.41112 7.59989,10.00388 -18.03502,11.27429 -9.06042,-14.2031 -1.75029,0.9566 -25.55589,-44.18999 -3.80035,-4.61709 -6.16535,-5.08019 3.73912,-0.39058 11.62875,-2.79136 2.99772,-1.15891 2.36977,1.76311 48.02965,36.8187 z"
   id="Ховрино"
   inkscape:connector-curvature="0"
   sodipodi:nodetypes="cccccccccccccc" /><path
   d="m 486.43232,362.78214 33.82555,25.6362 15.62784,16.51038 -8.49459,4.17579 -31.38598,12.12636 -0.7133,-1.24831 -5.70664,1.24831 -2.85321,6.77651 -12.48302,1.60496 -13.7313,-4.63656 -15.33644,0 -2.13991,-4.45824 -11.48948,4.03148 -1.37483,-0.84996 2.08008,-3.13361 -6.05816,-13.78234 -0.16268,-0.41709 12.84502,-5.35217 18.63973,-1.55329 6.39934,-3.707 18.25917,-11.24344 -7.76655,-10.09644 12.01932,-11.63147 z"
   id="Головинский"
   inkscape:connector-curvature="0"
   sodipodi:nodetypes="cccccccccccccccccccccccc" /><path
   d="m 486.10767,449.98067 5.88483,14.80172 -2.13958,5.34994 6.06313,2.85277 -3.29836,4.67834 -10.02014,0.71112 -30.45955,-1.15368 -0.66838,-4.61391 0.0533,-1.38911 4.31763,-9.80899 2.00812,-2.703 -0.30095,-2.67676 -0.4908,-4.77361 -14.20781,1.60444 -3.7208,-2.24314 0.38408,-2.884 2.59475,-3.28755 -2.47717,-7.45964 -6.04998,-13.07404 9.37156,-3.17675 2.14057,4.45844 15.59198,0.0862 13.58823,4.36697 4.88069,9.09943 -0.14388,3.90487 7.0985,7.3299 z"
   id="Войковский"
   inkscape:connector-curvature="0"
   sodipodi:nodetypes="ccccccccccccccccccccccccccc" /><path
   d="m 492.97294,477.22679 0.11664,0 -0.11664,0.17832 -0.29453,0.046 0.29453,-0.22436 0.17832,0 14.80125,0 3.03176,0.71331 18.37202,16.92031 -1.61445,2.00345 15.33283,23.42344 11.2434,9.36822 7.4899,-0.35665 -2.85321,0.89165 -9.54523,12.66274 -42.87433,-33.36753 -13.18431,-6.1841 0.03,-0.13827 -11.88727,-5.00428 6.12935,-12.19425 5.52832,-8.73814 z"
   id="Аэропорт"
   inkscape:connector-curvature="0"
   sodipodi:nodetypes="cccccccccccccccccccccc" /><path
   d="m 515.98607,435.54826 -1.78779,4.36681 -7.04747,3.28928 0.78578,16.70455 0.16323,4.86199 4.04824,4.71573 4.00779,9.63824 1.86422,6.0172 -7.38736,-7.04706 -12.74132,-0.65146 -4.8717,-0.0287 2.89636,-4.42972 -6.06313,-2.85277 2.2275,-5.36603 -5.88955,-14.73408 -7.09564,-7.3737 0.0652,-3.87367 -4.83631,-9.11543 12.42783,-1.58571 2.85377,-6.85445 5.64012,-1.20512 0.74334,1.24702 31.41732,-12.15503 8.50355,-4.17746 6.75289,7.72488 -27.29483,18.45037 -0.99874,3.51064 z"
   id="Коптево"
   inkscape:connector-curvature="0"
   sodipodi:nodetypes="cccccccccccccccccccccccccccc" /><path
   d="m 449.5506,317.83894 10.86381,-6.857 3.19892,-2.44361 11.64047,11.39279 7.54472,-4.75983 13.98969,25.03771 8.21471,11.10982 37.17392,35.12295 7.39306,16.29317 -8.39606,0.67109 -5.26858,1.5172 -15.5957,-16.49163 -22.80246,-17.48511 -61.47696,-46.7466 4.91277,-2.3157 4.91691,-2.73759 3.12941,-2.87839 z"
   id="Западное Дегунино"
   inkscape:connector-curvature="0"
   sodipodi:nodetypes="cccccccccccccccccc" /><path
   d="m 516.9582,284.66954 15.51492,10.52157 -0.99647,11.59837 -0.78652,10.51457 -5.65331,2.42878 -3.97677,6.06765 4.10827,13.02666 -15.87793,5.40389 -4.30005,7.04024 -8.24087,-11.20801 -13.99001,-24.99353 -7.4905,4.84843 -11.63083,-11.531 34.14383,-26.98818 15.78858,-5.82463 z"
   id="Дмитровский"
   inkscape:connector-curvature="0"
   sodipodi:nodetypes="cccccccccccccccc" /><path
   d="m 549.88039,309.9923 2.83915,31.31207 7.36502,34.53749 0.37139,14.97243 -10.17933,1.06277 0.95944,-11.63067 -5.23275,-4.48189 4.41058,-3.90792 -10.82996,-24.361 -2.69567,-5.95673 -9.64323,4.70122 -1.43481,-7.62666 -0.63739,0.18622 -4.10106,-13.00155 4.00563,-5.82998 5.66717,-2.46874 1.12511,-15.01951 0.70954,-7.30597 16.73353,14.12378 z"
   id="Восточное Дегунино"
   inkscape:connector-curvature="0"
   sodipodi:nodetypes="cccccccccccccccccccc" /><path
   d="m 528.02082,536.49953 6.87472,7.63114 -2.2836,2.26194 -5.70744,9.10905 7.23907,7.46306 0.9167,5.54651 -7.77816,1.1623 -10.96178,7.0407 -9.01785,15.43937 -5.30824,3.66111 -3.91168,2.89071 -1.93401,-4.18129 -0.94754,0.55618 -4.19251,-5.28763 -5.55708,-10.66604 -8.64135,-20.14093 -3.61828,-27.94587 17.40309,-6.32618 0.93131,-12.89511 1.79299,-8.46164 13.41499,6.27909 12.95044,10.15267 -2.16428,5.32388 -4.3e-4,5.46303 z"
   id="Хорошевский"
   inkscape:connector-curvature="0"
   sodipodi:nodetypes="ccccccccccccccccccccccccc" /><path
   d="m 535.15551,568.56244 -0.94337,-5.65508 -9.23646,-9.27503 10.10059,-9.48249 -6.94628,-7.73499 -10.44308,-5.90388 -0.0645,-5.30552 2.17481,-5.51521 -7.21624,-5.65298 36.83343,28.85261 9.569,-12.64999 2.92291,-0.93575 6.04132,-0.15389 8.35227,-1.44393 0.11318,6.52348 -3.59339,20.27214 -3.21403,4.91965 -4.07501,3.13758 -1.80632,1.51461 -9.32816,1.46241 z"
   id="Беговой"
   inkscape:connector-curvature="0"
   sodipodi:nodetypes="ccccccccccccccccccccc" /><path
   d="m 567.35866,493.06352 4.09687,28.80827 4.78701,5.79056 -8.28931,1.44572 -13.61697,0.42941 -11.22777,-9.37851 -15.27212,-23.27796 9.5497,3.13965 25.34387,-5.78065 z"
   id="Савеловский"
   inkscape:connector-curvature="0"
   sodipodi:nodetypes="cccccccccc" /><path
   d="m 315.50319,136.69905 11.82714,-14.10973 9.33729,-4.5649 -1.41185,-3.59675 7.34911,-1.22408 0.23085,-4.50934 22.86276,-6.88205 6.80141,-17.650434 10.26914,3.886359 -3.05455,6.259051 2.96874,13.742164 3.8235,-0.82797 22.98367,4.98552 4.37122,8.74744 -3.46775,5.04718 -11.47765,11.31998 -11.41217,9.1298 -8.50733,2.69744 -6.63984,2.07496 -16.39211,2.07495 -2.90504,-9.1298 -32.99181,8.09232 -4.56496,-15.56216 z"
   id="path3109" /><path
   d="m 331.33082,265.28176 13.20681,-9.11459 -5.74016,-7.22837 -0.8505,-6.80318 7.22843,-19.55912 9.35428,4.88979 2.12605,-0.85039 1.27555,-2.76379 -1.27555,-0.4252 -3.18885,-12.54338 -2.97657,-2.76379 6.59068,-15.94491 11.90558,-0.4252 1.48829,-5.52758 -0.21275,-3.18899 1.48828,-1.91339 -2.12605,-1.4882 -1.06303,-4.46459 -3.6141,-0.2126 -1.06303,-3.18899 -5.74017,3.40159 0,-2.12599 -3.61433,1.27558 0.638,1.91341 -1.06303,2.97638 -17.85848,5.52758 -1.7008,-2.55118 1.48828,-4.88979 -3.82685,-0.63779 -1.48806,-2.126 -6.80319,0.85039 0.42504,3.82678 -3.18886,-0.21259 -6.80319,-5.74019 1.7008,-3.40158 -21.26009,-1.063 -1.48805,0.8504 0.85028,2.126 -1.91331,0.42519 -4.03937,7.65358 -4.67713,-4.25199 -1.91353,1.2756 -2.97635,-4.88979 0.85028,-1.70079 -0.85028,-2.126 -4.67713,0 -0.42526,-1.2756 -6.37794,6.59059 0.8503,2.33859 -1.27555,2.97638 9.77953,15.51978 12.1181,11.48031 -4.03937,4.6772 -8.7165,-5.52759 -7.65348,7.01578 -9.14198,4.88979 7.6537,1.91339 5.95268,8.92918 3.61433,6.37798 0.21252,4.88978 5.31491,1.91341 2.33879,-2.5512 -1.06302,-5.31498 8.92901,-7.01577 25.29945,19.77179 -7.6537,2.97638 -5.74017,8.07878 -2.97633,1.7008 5.3149,7.65358 1.94638,6.974 9.10892,-7.81775 6.35014,-3.79504 7.44132,1.96573 0.21425,1.79548 z"
   id="Молжаниновский" /><path
   d="m 492.80327,477.68594 -5.36816,8.17954 -6.06306,12.30475 11.94804,4.99323 -1.96159,8.73813 -0.89162,12.83975 -17.56508,6.08684 -0.20089,-1.5132 -0.32247,-0.0958 -0.34436,-3.44378 -10.21886,-22.17297 -8.40443,-17.97727 -1.22382,-8.37111 30.56046,1.2085 z"
   id="Сокол"
   inkscape:connector-curvature="0"
   sodipodi:nodetypes="ccccccccccccccc" /><path
   d="m 632.15265,385.1375 -9.76112,0.68169 -0.1305,-1.43341 -5.86374,-3.38805 0.26562,8.61696 -9.79757,19.10944 -13.17976,-1.50991 -5.98213,-2.03648 -26.39506,-0.43051 -0.61147,-5.73828 -0.59056,-23.1869 -4.8889,-22.62908 9.20971,5.98307 7.40411,3.05712 0.78191,-1.69403 1.33978,-14.89547 25.78765,-8.58975 11.18072,-2.79327 1.45334,3.02977 -1.05947,8.00247 0.6514,1.3031 12.4524,11.57662 9.20586,15.47313 z"
   id="Отрадное"
   inkscape:connector-curvature="0"
   sodipodi:nodetypes="cccccccccccccccccccccccc" /><path
   d="m 574.11548,321.84101 -9.7431,1.81133 -6.0409,-4.09535 -9.14786,-10.20876 -16.58029,-14.26349 -9.09035,-6.05671 -6.44273,-4.4041 -3.42371,-9.04377 4.81182,-0.74207 43.26199,-7.90158 14.80034,2.75301 -1.32172,19.75812 -0.58343,30.94293 z"
   id="Лианозово"
   inkscape:connector-curvature="0"
   sodipodi:nodetypes="cccccccccccccc" /><path
   d="m 573.91751,345.60653 -1.29996,14.7447 -0.9149,1.78171 -7.23148,-2.98744 -9.22261,-6.02974 -0.98968,-4.2844 -1.5183,-7.48449 -2.97541,-31.27224 8.50414,9.48795 6.07908,4.12179 9.76394,-1.8088 0.52496,-1.48811 12.19215,1.31117 2.74368,3.09311 10.12287,12.27056 z"
   id="Алтуфьевский"
   inkscape:connector-curvature="0"
   sodipodi:nodetypes="cccccccccccccccc" /><path
   d="m 616.30793,287.65207 24.97139,8.03812 -2.67192,7.97191 -17.4755,12.2541 -3.79103,6.9886 -1.04578,-0.18319 -7.69614,6.60642 2.32125,4.90756 -11.2068,2.80844 -12.72527,-15.53998 -12.34771,-1.12898 0.62541,-30.99814 1.3657,-19.65241 3.17908,1.28612 z"
   id="Бибирево"
   inkscape:connector-curvature="0"
   sodipodi:nodetypes="ccccccccccccccc" /><path
   d="m 695.76471,307.01756 -5.51397,16.70302 -7.3957,3.47406 -5.4559,3.59073 -12.23535,2.35311 -3.32466,10.68817 -8.11295,-1.42127 -18.00257,-3.15085 5.99478,-12.50959 -14.0022,-1.82262 -10.23367,-2.03979 3.66386,-6.92787 17.44485,-12.14382 2.76517,-8.13343 35.28465,5.65706 z"
   id="Северное Медвеково"
   inkscape:connector-curvature="0"
   sodipodi:nodetypes="cccccccccccccccc" /><path
   d="m 661.00431,353.58872 -7.82843,6.01115 -4.2909,6.36868 -10.41125,5.28833 -4.83423,2.35138 -5.36522,-9.24046 -3.77038,-6.17214 -12.49765,-11.60819 -0.66381,-1.26159 1.0558,-8.02569 -3.77893,-7.94913 7.73616,-6.62081 11.41104,2.28988 13.95188,1.72481 -5.99478,12.50959 26.06224,4.56146 z"
   id="Южное Медведково"
   inkscape:connector-curvature="0"
   sodipodi:nodetypes="ccccccccccccccccc" /><path
   d="m 708.13616,310.1651 30.66078,11.66764 -43.65151,49.86909 -10.65798,-11.95084 6.48589,-17.55432 -7.68296,-15.13214 6.97315,-3.20931 5.77703,-16.79235 z"
   id="Лосиноостровский"
   inkscape:connector-curvature="0"
   sodipodi:nodetypes="ccccccccc" /><path
   d="m 667.5177,386.20277 -10.037,-0.80298 -10.14997,-10.05967 -3.76535,-6.63049 5.37935,-2.66958 4.26058,-6.3958 7.84247,-6.05826 1.0282,-9.79364 3.09427,-10.61706 12.29612,-2.26492 3.72867,-2.48739 1.98102,-1.33314 7.66843,15.16208 -6.60394,17.40644 5.85341,6.56316 4.98721,5.62237 -13.80995,19.81666 -1.07851,8.54964 z"
   id="Бабушкинский"
   inkscape:connector-curvature="0"
   sodipodi:nodetypes="ccccccccccccccccccc" /><path
   d="m 680.19231,400.29511 -12.69187,-14.07064 -10.01974,-0.82468 -10.14997,-10.05967 -4.38407,-7.58066 -9.29493,5.87532 -1.46939,11.51361 -9.77357,0.70927 1.59562,22.8331 11.77356,-0.44211 23.36019,-1.46896 20.40438,1.70723 z"
   id="Свиблово"
   inkscape:connector-curvature="0"
   sodipodi:nodetypes="ccccccccccccc" /><path
   d="m 738.98677,321.8726 4.45971,4.25709 13.80459,12.36223 -4.73881,3.9147 0.82413,4.12074 -9.06577,3.91471 -20.19147,15.86486 0.61811,1.64829 -10.302,9.06563 23.91465,-1.22249 2.178,16.85085 -0.765,5.68125 -1.42732,3.41485 -5.97502,6.59318 -3.29657,-0.82416 -10.30199,-0.61811 -4.32675,-2.47244 -4.1207,2.06038 -1.44225,-2.88453 0.41207,-3.50262 -2.06036,-5.15093 1.23622,-1.23621 -2.26639,-4.53282 -5.56317,-1.85434 -2.67846,3.50264 6.59334,3.50263 -4.12092,5.76903 3.8265,2.77403 -15.98259,16.1814 -1.64829,5.563 -5.38146,2.42558 -2.7776,-1.37777 -0.40345,-0.42847 -8.95239,-4.00921 10.52439,-12.66606 0.61805,-8.31031 1.10286,-8.55237 13.85781,-19.8219 43.81834,-50.00224 z"
   id="Ярославский"
   inkscape:connector-curvature="0"
   sodipodi:nodetypes="cccccccccccccccccccccccccccccccccccccccc" /><path
   d="m 609.85665,686.57119 -1.88092,0.69156 -0.0523,6.53537 -6.43715,0.0508 -2.78126,13.34969 6.1185,14.27673 13.72057,-4.4499 7.97281,1.11246 -1.11242,18.54123 1.88347,11.07334 -8.39202,2.84027 -8.23734,3.10582 -7.1964,0.24306 -9.22863,-5.28267 -4.8627,-6.27932 -13.36369,-26.10404 -7.37299,-10.78483 5.39116,0.64464 3.50331,-3.8738 -0.46873,-1.40394 11.15291,-16.09613 2.27629,1.23668 1.00186,-2.88836 11.29316,4.62031 0.74145,-4.07908 5.74799,1.11248 0.58303,1.80746 z"
   id="Донской"
   inkscape:connector-curvature="0"
   sodipodi:nodetypes="cccccccccccccccccccccccccccc" /><path
   d="m 618.57779,716.96036 8.01571,1.11709 -1.07375,18.72101 2.95579,16.69327 2.90597,7.91622 7.39121,2.84246 33.43922,-3.48697 2.80272,-32.17683 1.10422,-11.66999 -5.26407,-27.83927 -0.10088,-14.61647 -1.32402,-3.20913 -6.99139,0.47004 -3.95284,-4.68057 -1.17661,0.47402 -6.6546,-0.0348 -3.79519,1.34919 -1.12489,12.28901 -8.71092,-2.8406 -4.40702,2.23837 -11.34607,3.07344 -13.2233,3.6847 -0.0626,6.59753 -6.48569,0.0754 -2.73759,13.33879 6.12971,14.12688 z"
   id="Даниловский"
   inkscape:connector-curvature="0"
   sodipodi:nodetypes="ccccccccccccccccccccccccccc" /><path
   d="m 736.44825,682.37027 12.74675,18.90559 3.28194,14.04007 -0.16135,9.84874 2.09879,13.88507 3.0483,10.74959 1.038,3.15911 -1.66367,10.28346 -2.79022,12.29859 -1.42706,4.36115 -7.69996,23.97447 -4.50395,6.58288 -0.008,0.003 -22.91002,28.74376 -6.90325,8.43341 -2.92747,3.49658 -21.1367,-16.78953 -6.42746,-5.02653 3.35826,-26.00292 4.18174,-5.61799 15.90577,-9.05774 -0.003,-0.004 16.76351,-8.77469 9.57729,-24.74134 -7.98108,-9.7103 -21.81471,-9.44427 -3.69145,-0.81938 7.28678,-14.94355 -4.06998,-1.69579 -10.56013,-22.8111 25.85813,-13.15694 0.17992,0.10097 4.3986,3.22549 15.09922,-7.29655 z"
   id="Печатники"
   inkscape:connector-curvature="0"
   sodipodi:nodetypes="ccccccccccccccccccccccccccccccccccc" /><path
   d="m 775.25707,704.43251 -10.57957,-27.85203 -3.77724,-1.9538 -24.37663,7.70688 12.75531,18.90821 3.22908,14.04652 -0.16157,9.84874 2.09902,13.88507 2.27398,7.65222 5.79447,-0.55884 5.0682,4.03583 6.88025,-0.9984 8.55237,3.19947 2.3584,-4.18855 -13.99501,-36.55707 1.43698,-3.77978 1.13824,-1.86982 z"
   id="Текстильщики"
   inkscape:connector-curvature="0"
   sodipodi:nodetypes="cccccccccccccccccc" /><path
   d="m 816.99604,454.09389 -1.61704,9.05793 -17.61749,7.43197 -20.36763,14.71045 -6.39777,4.03335 -2.63542,-8.89734 -12.96818,-11.40689 -57.48766,-34.70059 -16.56653,-7.23355 5.25676,-2.35864 1.61803,-5.54082 16.06382,-16.3457 -3.80516,-2.72838 4.1524,-5.79693 -3.0172,-1.65596 -3.52607,-1.86262 2.58273,-3.31773 5.45078,1.7889 2.15605,4.35962 -1.15374,1.26562 2.05201,4.9832 -0.37359,3.8494 1.44965,2.83076 4.09633,-2.07433 4.27514,2.49066 10.44735,0.59512 3.33902,0.9006 5.91549,-6.69089 1.45174,-3.42479 0.87293,-5.77807 -2.26442,-16.90795 -23.85736,1.29169 10.20847,-9.01103 -0.54119,-1.63724 20.12825,-15.79343 9.1493,-3.96528 -0.90107,-4.10597 4.68994,-3.83745 5.02025,4.45474 48.19636,43.49515 4.8933,67.20554 z"
   id="Метрогородок"
   inkscape:connector-curvature="0"
   sodipodi:nodetypes="cccccccccccccccccccccccccccccccccccccccccc" /><path
   d="m 879.23632,450.78895 7.64007,24.11285 -0.19914,3.98476 -35.18747,8.90933 -37.09973,1.48422 -35.15978,16.40773 -7.57166,-2.11378 -0.50598,-12.65812 -0.15113,-1.56965 27.33294,-18.91284 17.29096,-7.17749 1.41987,-9.24076 -1.54719,-0.29625 -5.02054,-66.67456 60.87991,55.86577 6.26186,6.04627 z"
   id="Гольяново"
   inkscape:connector-curvature="0"
   sodipodi:nodetypes="ccccccccccccccccc" /><path
   d="m 779.45135,505.67211 34.96173,-16.2451 37.04629,-1.47167 35.42839,-8.84316 0.31672,8.01445 0.97646,13.45803 -9.55868,3.00162 z"
   id="Северное Измайлово"
   inkscape:connector-curvature="0"
   sodipodi:nodetypes="cccccccc" /><path
   d="m 914.91372,664.0216 -25.30883,0 2.53074,-41.1271 2.21455,6.32725 4.42909,2.84725 20.56354,-2.53088 26.25811,-9.80724 2.72845,-3.87498 2.84717,5.57565 -2.72822,1.46295 3.10402,14.22671 -11.9622,-1.71029 -7.9187,8.79873 -9.42186,3.98424 -5.12132,6.65321 z"
   id="Новокосино"
   inkscape:connector-curvature="0"
   sodipodi:nodetypes="cccccccccccccccc" /><path
   d="m 811.90102,665.50651 -13.22714,-11.637 9.24117,-2.86726 84.50634,-29.64807 -4.71574,74.4901 -3.49078,11.07837 z"
   id="Вешняки"
   inkscape:connector-curvature="0"
   sodipodi:nodetypes="ccccccc" /><path
   d="m 771.0955,490.90654 -16.05138,-0.0469 -3.82484,-2.10371 -5.16362,6.31112 -16.82987,6.11985 -1.91242,-2.29493 -1.72113,3.05993 -11.66603,5.73736 4.1255,-10.28036 -3.55164,-8.84416 -5.16362,-2.29495 -2.10371,1.33872 -10.32724,-10.90105 2.10371,-2.86869 -0.19129,-0.76498 -1.91242,0.57373 -10.51853,-5.35488 -7.12495,-14.59095 0.6829,-12.68964 -1.50861,-15.22239 1.71983,0.8046 0.54554,0.27236 17.59865,7.75555 57.00255,34.43589 13.0752,11.44665 2.60161,8.84304 0.11581,1.55877 z"
   id="Борогородское"
   inkscape:connector-curvature="0"
   sodipodi:nodetypes="cccccccccccccccccccccccccccc" /><path
   d="m 746.73205,537.74101 -10.70978,-0.19117 -5.97111,7.09141 -6.80912,4.30411 -8.69949,-5.92966 -0.21193,-6.95559 7.66126,-9.45207 -8.21381,-16.05005 0.13869,-2.8513 11.70117,-5.70487 1.71229,-3.05009 1.87633,2.29746 16.8545,-6.15876 5.18863,-6.27195 3.79344,2.07005 16.04949,0.0443 0.70816,16.20037 -0.23824,10.59334 -3.16769,7.07483 -10.95302,-0.82989 z"
   id="Преображенское"
   inkscape:connector-curvature="0"
   sodipodi:nodetypes="ccccccccccccccccccccc" /><path
   d="m 714.69648,550.50932 -14.34827,-1.31919 -36.14535,-11.85722 -9.84224,-3.47357 0.0781,-22.50207 22.25205,-48.83082 2.44646,-8.61845 7.24993,14.3852 10.51853,5.35488 1.91242,-0.57374 0.19129,0.76499 -2.10371,2.86869 10.32724,10.90104 2.10372,-1.33872 5.16361,2.29495 3.4425,8.7973 -4.0436,10.32484 -0.16383,2.87083 8.22354,16.06467 -7.64991,9.37103 z"
   id="Сокольники"
   inkscape:connector-curvature="0"
   sodipodi:nodetypes="ccccccccccccccccccccc" /><path
   d="m 722.37522,550.9828 5.74933,5.92893 12.77929,28.3404 0.44574,3.42453 -3.71568,14.07287 -0.30084,5.58564 1.56992,7.06641 0.13112,0.13084 21.57924,-8.58283 18.35547,-6.50736 1.93631,-1.29002 0.5073,-2.76867 -5.88036,-10.83615 -1.13682,-9.37548 -3.06836,-0.7407 -2.59571,-38.80628 2.84753,-18.81007 -3.1498,7.11546 -10.99224,-0.83252 -10.64795,13.70086 -10.76131,-0.22 -4.95438,6.01541 -0.9927,1.0942 -6.85859,4.27181 -8.67374,-5.8955 0.20157,7.41035 7.62588,0.50778 z"
   id="Соколиная Гора"
   inkscape:connector-curvature="0"
   sodipodi:nodetypes="cccccccccccccccccccccccccccc" /><path
   d="m 910.54845,468.62273 6.39455,-3.56788 6.81476,-5.69201 6.65913,-4.7709 -2.1574,5.53067 6.67214,4.49535 5.2781,-0.3945 6.67693,0.82788 7.94186,4.74224 4.86691,7.13097 -8.33961,-0.61856 -8.96295,-1.88802 -5.18885,6.26862 -7.58262,6.10802 -1.80952,8.46394 -5.64922,-5.05538 -6.95921,2.59654 -6.72856,3.71709 -14.24073,-15.60041 15.39506,-10.4552 z"
   id="Восточный"
   inkscape:connector-curvature="0"
   sodipodi:nodetypes="ccccccccccccccccccccc" /><path
   d="m 594.16924,748.65586 -5.76942,5.45244 -13.31667,21.67343 -8.35228,4.95426 0.97202,4.1256 -3.00829,4.3795 -3.99218,-2.27098 -15.22677,-9.14435 -12.37764,-12.47311 11.91112,-17.81151 30.9628,-31.25432 13.29982,26.11099 z"
   id="Академический"
   inkscape:connector-curvature="0"
   sodipodi:nodetypes="ccccccccccccc" /><path
   d="m 568.45294,705.33028 -5.30899,-5.96259 -21.5013,8.11452 -28.60875,37.42894 -5.98917,6.28551 11.7949,12.53909 9.72116,7.29044 4.42299,-5.67732 11.89612,-17.72208 31.07483,-31.35751 z"
   id="Гагаринский"
   inkscape:connector-curvature="0"
   sodipodi:nodetypes="ccccccccccc" /><path
   d="m 490.88845,608.2804 6.44983,17.88874 -11.50641,6.6767 -7.03112,13.47625 -9.96077,6.83579 -14.45264,4.29677 -10.74199,-21.48383 -21.28869,10.74197 -11.3277,4.88271 -1.56247,-2.73433 -3.51557,0 0,1.95309 -5.27334,2.92961 -9.37483,-5.66394 2.34371,-3.51553 -0.97654,-2.53902 -2.34372,-0.97653 -1.17185,-1.95309 -0.78123,0 -3.12495,-2.92961 -2.73433,-5.46862 -5.91581,-3.71857 6.09123,-6.64495 1.1475,-0.38249 6.41849,2.12261 -0.97151,4.88056 10.77931,10.51643 7.62421,3.41783 8.93907,-0.52582 9.46489,-4.46947 8.67605,-9.46481 3.41769,-8.67605 1.05163,-8.93896 -0.2628,-18.92962 0.80873,-3.70752 3.13008,-4.57178 12.6495,-1.59664 16.65088,9.15613 10.01885,8.43389 4.76966,3.7723 z"
   id="Филевский Парк"
   inkscape:connector-curvature="0"
   sodipodi:nodetypes="ccccccccccccccccccccccccccccccccccccccccc" /><path
   d="m 411.7867,708.68288 7.64822,-2.04993 5.31028,0.32764 2.50151,-4.64645 -2.89642,-3.52236 4.69786,-0.77688 3.44194,1.87887 -0.13161,-5.91565 -2.01688,-4.63069 4.58062,-1.88755 5.18418,-5.92488 7.22702,2.14849 4.68726,4.68726 -1.36565,2.93003 7.35722,-1.17181 3.57059,-3.90603 4.49962,-6.05489 -11.46358,-22.92717 -3.29918,-6.01267 -7.69786,-15.395 -32.60006,15.78013 -1.5668,-2.74563 -3.48997,0.004 0.009,1.97773 -5.24097,2.93938 -8.62948,-5.2212 7.2167,8.29285 1.39571,3.30636 z"
   id="Фили-Давыдково"
   inkscape:connector-curvature="0"
   sodipodi:nodetypes="ccccccccccccccccccccccccccccc" /><path
   d="m 328.16189,705.6627 18.62522,27.00524 4.41529,-4.64152 0.6171,-5.51298 7.53863,-7.53862 10.24422,5.35489 1.39667,-9.07934 9.07933,4.88834 1.1639,6.75156 22.58245,-7.68267 1.76178,-5.43116 6.852,1.00837 -1.85107,-7.34092 -8.70121,-38.01021 0.19405,5.55484 -41.67157,0.36297 -28.75413,-7.36103 -10.95008,2.90833 -5.13493,-0.36141 9.56623,30.9771 0.52697,4.71156 z"
   id="Можайский"
   inkscape:connector-curvature="0"
   sodipodi:nodetypes="cccccccccccccccccccccc" /><path
   d="m 455.5074,712.18148 -20.06745,16.67123 -9.49835,13.12735 15.17572,18.82998 -3.5541,3.35439 -19.57557,22.94849 -21.07215,14.77424 -4.31482,7.33499 -6.35403,2.83966 -5.79343,-6.65446 -14.75682,-33.04831 -2.74266,-8.97834 -7.15618,-17.93497 -8.76776,-12.88774 3.01621,-8.27105 9.31212,-9.31212 10.24422,5.35489 1.41941,-9.04398 9.04348,4.87369 0.5185,2.91095 7.41782,1.52035 15.82314,-5.38312 1.76326,-5.40919 6.86253,0.99674 -0.51609,-2.13242 5.16122,-1.29975 2.37699,-0.65148 5.35439,0.30009 2.50237,-4.73597 -2.98361,-3.47908 4.7176,-0.71639 3.4628,1.8891 -0.14188,-5.98888 -1.96659,-4.60052 4.53699,-1.8909 5.23874,-5.8759 7.13341,2.12987 4.55308,4.57153 -1.28943,3.05789 7.42091,-1.21216 3.51995,-3.84865 -1.59609,3.20948 -0.26661,9.30343 z"
   id="Очаково-Матвеевское"
   inkscape:connector-curvature="0"
   sodipodi:nodetypes="cccccccccccccccccccccccccccccccccccccccccccc" /><path
   d="m 526.62689,668.17335 -2.88328,2.59239 -4.65994,10.24354 0.46571,10.24351 22.11662,16.08182 -28.63533,37.4638 -7.44969,7.68264 -21.42147,21.00828 -0.7213,-0.40653 -1.73767,-6.39796 -4.08427,-3.96023 -1.13633,-4.88896 -3.9578,-1.62967 -6.75134,0.2328 -1.18929,2.01935 -3.72986,-1.13621 -3.46954,-2.87214 -1.8371,2.45714 3.82658,7.29481 -6.03282,8.08939 -4.58343,0.0162 -2.20368,-6.81894 -5.40054,-4.77257 -15.09654,-18.89047 9.48603,-13.02512 19.98674,-16.59481 4.19065,-13.50283 0.23264,-9.31229 1.65943,-3.14333 4.49211,-6.05454 -0.0378,-0.0753 23.08401,-17.54143 3.24994,-1.56245 11.42949,-6.38267 12.45289,-3.77336 z"
   id="Раменки"
   inkscape:connector-curvature="0"
   sodipodi:nodetypes="cccccccccccccccccccccccccccccccccccc" /><path
   d="m 403.17861,671.11317 -42.40016,0.46342 -29.10082,-7.44983 -10.24367,3.02651 -5.58731,-0.93123 -3.49209,-2.7937 1.16403,-5.12176 -8.14823,-30.73059 -0.23286,-34.22265 -1.62973,-3.4921 -0.29318,-4.50933 4.08696,-3.23174 -0.38459,-3.14048 -3.12226,-2.41044 0.58481,-3.0528 -3.39154,-2.30941 0.7171,-3.83485 3.07668,2.56457 1.48917,0.41548 1.57745,0 2.19018,1.5882 -0.0449,5.06208 62.17709,54.805 4.4273,-4.82981 5.91581,3.71856 2.73433,5.46863 3.12495,2.92961 0.78123,0 1.17185,1.95309 2.34372,0.97653 0.97654,2.53901 -2.34371,3.51554 9.37483,5.66394 -8.60566,-5.19915 7.2385,8.32407 1.36716,3.32026 2.50103,10.92542 z"
   id="path3113" /><path
   d="m 304.03001,535.55797 -4.01098,-2.77681 -2.00561,2.62254 -4.93659,-9.56457 -1.07978,0.30853 -4.47378,-4.31948 -1.697,-4.93655 -7.09615,3.39388 2.15979,3.39389 1.85119,8.33044 -2.62259,11.87862 -20.05471,22.52303 -1.697,4.47374 -3.85678,3.54816 -14.34673,3.39389 -0.92559,3.39389 2.62237,3.85666 21.90611,-1.07985 -1.54258,-13.26699 6.47916,3.23963 0,2.00547 -2.4684,1.07987 0.9256,2.00548 11.57016,1.38841 0.15419,-1.85121 3.39399,-1.54268 0.9256,-5.39935 -6.63358,-0.4628 4.16518,-5.24509 1.697,0.92561 -0.77141,1.3884 4.67531,-1.44453 -0.0471,-7.04018 10.33596,-11.87862 0.78006,-1.62829 11.60513,-5.98479 -1.45625,-5.61255 z"
   id="Кунцево" /><path
   d="m 157.37104,987.49814 2.78103,-1.98641 0.9933,0.19867 77.46997,-36.15276 -2.7808,-2.38368 1.58906,-1.58913 -2.38371,-1.3905 -2.18505,0.59592 -0.9933,-0.79455 0.59598,-0.59592 0.19866,-4.76739 -3.97277,-1.19186 0.19866,-4.37012 3.17813,-3.97282 1.98638,0.99322 1.39064,-0.59594 -0.99331,-1.19183 3.57567,-2.78099 -0.19866,-2.97962 0.59576,-3.77418 -2.18505,-1.19184 -0.59576,-1.58913 -2.58237,0 0,-1.19185 -1.39062,0 -0.3971,-1.19185 -2.38371,-0.99319 0.99308,-1.3905 -2.78103,-3.37691 -5.95916,0.19865 -3.17835,-1.98641 -3.37679,4.17145 0,3.37691 -3.37702,2.58234 0.19867,-1.58913 -4.7672,-3.3769 -0.79464,-0.39728 -5.3634,3.17827 -5.7605,0.19864 3.77411,-6.55517 -1.19174,0 0.79442,-2.38369 -1.58906,0 -2.78103,6.75381 -6.15783,-6.15789 -1.58906,0 -4.56876,5.56197 -7.34978,5.95923 -2.58237,-7.34973 0.79464,-2.58234 -8.93885,3.97284 -7.74711,6.7538 7.15113,8.34294 -5.3634,3.57554 -0.39733,8.34294 -1.58906,3.3769 -4.17144,1.98641 -3.77411,11.52122 -5.56206,5.36333 2.9797,10.3293 -5.56207,1.39049 0,10.52801 5.76072,-2.38369 3.37679,0 1.19197,4.3701 7.74689,2.58234 z"
   id="path3117" /><path
   d="m 91.410666,915.1816 3.920035,-1.67997 0.65319,-3.17325 4.760039,-2.42662 5.13324,-0.83998 3.6398,-1.39998 4.29323,0 3.08002,2.51996 0.3732,1.2133 2.24002,2.51997 4.47981,0.65332 2.61343,3.35991 1.3066,3.82656 -0.46659,5.50656 -5.13324,7.65316 -8.21325,0.46664 0.93342,4.29325 -5.32005,2.61327 -7.65303,-6.62651 -14.09309,0.18665 -3.453215,2.7066 -3.266622,-2.33327 -0.933192,-4.01324 6.25324,-4.38657 3.453215,-5.31989 1.400014,-5.31989 z"
   id="Внуково" /><path
   d="m 497.35591,626.18942 4.18247,4.56906 4.01902,1.50103 10.15608,-0.58593 7.22643,-3.71085 8.5936,-7.61701 5.46865,-4.49209 12.89018,-3.32025 1.96621,0.24138 5.45553,2.10233 1.47241,6.05456 0.67599,6.24984 -0.19532,3.71085 -7.81235,17.18714 -7.61683,8.00766 -17.18719,12.10911 -10.35138,-17.3824 -12.49956,3.71086 -11.52323,6.44518 -3.12494,1.56245 -23.08401,17.69767 -11.42581,-22.85158 -0.25497,0.0758 14.45265,-4.29677 9.96076,-6.83579 7.03112,-13.47628 9.79557,-5.65643 z"
   id="Дорогомилово"
   inkscape:connector-curvature="0"
   sodipodi:nodetypes="cccccccccccccccccccccccccccc" /><path
   d="m 617.98166,600.19606 5.26507,-0.33862 3.68116,-1.00957 0.19396,1.35622 7.07158,10.26849 -2.72325,12.58569 -24.65692,4.35343 -1.9865,-4.51229 -1.66378,-2.31403 1.84873,-5.89151 2.41609,-4.83839 -8.37908,-5.10787 3.39333,-4.46904 -4.54127,-7.11352 -3.95177,-3.24713 -3.46908,-0.46599 -3.9254,-4.57261 2.18907,-2.65616 -2.46884,-0.86013 -15.85735,-15.77447 -4.65384,3.11587 -1.946,-4.65167 5.8434,-4.6304 3.1836,-4.89629 3.63425,-20.27989 -0.10257,-6.48666 14.42726,-0.0694 3.10997,15.60083 2.7227,-0.53138 10.47854,5.77729 5.25266,5.76321 1.59372,10.21739 4.29731,4.07465 0.24747,14.3788 -2.06259,4.95233 0.21877,7.50756 1.39265,4.99356 -0.0731,-0.22831 z"
   id="Тверской"
   inkscape:connector-curvature="0"
   sodipodi:nodetypes="ccccccccccccccccccccccccccccccccccccccc" /><path
   d="m 647.08615,555.08447 -5.25004,3.63046 -4.24335,13.51588 -6.18249,-0.0249 -1.14007,13.17229 -3.4308,7.38962 0.0754,6.0715 -3.63517,0.98496 -5.2687,0.25527 -1.15592,-4.52671 -0.29434,-7.77391 2.00959,-4.66999 -0.18194,-14.48327 -4.34954,-4.11823 -1.65125,-10.2351 -5.24533,-5.74325 0.40084,-1.29177 2.97274,-0.15153 2.47474,-6.8225 -0.89389,-14.05034 23.17812,3.35024 -0.27134,-14.16047 4.59729,3.84831 7.5848,5.27944 -5.9354,2.79773 2.63854,9.05976 0.32831,6.32733 2.86917,12.36921 z"
   id="Мещанский"
   inkscape:connector-curvature="0"
   sodipodi:nodetypes="ccccccccccccccccccccccccccccc" /><path
   d="m 631.48093,623.09001 17.63129,22.30078 4.06998,15.43172 9.32679,10.8531 6.9228,-0.45322 -4.09082,-9.90336 6.05302,-1.99615 5.97412,13.0971 9.92747,-5.80869 1.76925,1.37977 0.2174,0.11476 0.79148,-2.93824 2.45097,0.74228 1.09856,-4.11881 1.49253,0.0884 0.30614,-6.48212 10.49954,9.49503 1.70205,0.71347 6.94652,-16.14517 -0.3249,-5.34535 -1.30664,-1.31701 -4.94682,-7.72524 -15.3571,-11.00619 -14.1624,-5.46252 -4.9405,-5.26417 -2.3741,1.52622 -2.20449,-3.39161 -7.29191,-1.32537 -24.75085,1.17924 -3.02174,0.74367 z"
   id="Таганский"
   inkscape:connector-curvature="0"
   sodipodi:nodetypes="ccccccccccccccccccccccccccccccc" /><path
   d="m 658.4726,667.01648 -1.11874,0.45157 -6.72582,-0.0274 -3.78663,1.34394 -1.20132,12.23823 -8.62427,-2.77128 -4.36394,2.21713 -18.73044,4.97656 -3.33367,-14.43256 5.93324,-1.11246 -0.18548,-4.26449 5.19156,-1.66873 0.92694,-34.48672 1.85431,-0.37082 -0.76655,-4.52038 7.93693,-1.47923 17.49707,22.33313 4.16373,15.43172 z"
   id="Замоскворечье"
   inkscape:connector-curvature="0"
   sodipodi:nodetypes="ccccccccccccccccccc" /><path
   d="m 613.87682,685.42953 -3.85614,1.18101 -0.64219,-1.89172 -5.91964,-1.15936 -0.6948,4.00096 -11.30173,-4.51239 -0.99085,2.86519 -2.27131,-1.19067 -5.71259,8.20617 -2.78424,4.07214 -2.64655,3.86032 0.44315,1.40155 -3.46638,3.77648 -5.55334,-0.6702 -0.19323,-0.21488 -5.07858,-5.79833 4.5649,-3.13491 13.31297,-19.01434 6.16103,-15.13297 2.23756,-4.62407 3.57992,-5.07155 4.4749,-3.87824 2.34117,-2.49956 1.98446,-9.881 2.20774,-5.00118 2.74132,-3.64026 16.57824,-2.94021 0.21082,1.30174 0.67682,3.25383 -1.85409,0.37082 -0.92715,34.48672 -5.19157,1.66871 0.18548,4.26448 -5.93323,1.11248 3.31735,14.43335 z"
   id="Якиманка"
   inkscape:connector-curvature="0"
   sodipodi:nodetypes="cccccccccccccccccccccccccccccccccccc" /><path
   d="m 670.96925,569.01323 15.59014,-11.86394 4.12277,3.18922 8.9128,-11.14977 -45.24514,-15.32373 -4.99347,-4.73644 -2.16931,-4.57385 -5.90811,2.78389 2.68335,8.98375 0.34783,6.79443 2.77604,11.96768 -5.25004,3.63046 -4.24335,13.51588 -6.18249,-0.0249 -1.14007,13.17229 -3.4308,7.38962 0.0871,6.06758 3.23869,-0.55574 6.8494,-10.14784 10.13942,-8.69141 22.55531,-2.67077 z"
   id="Красносельский"
   inkscape:connector-curvature="0"
   sodipodi:nodetypes="cccccccccccccccccccccc" /><path
   d="m 728.125,556.91242 -5.74911,-5.92893 -8.11039,-0.48483 -14.3938,-1.24471 -9.14043,11.20551 -4.08317,-3.06242 -15.51634,11.63722 -1.32493,7.80629 -22.63662,2.6191 -10.0088,8.60564 -6.97772,10.33585 -3.25791,0.44347 0.19673,1.36022 7.0718,10.2685 -0.3495,1.56725 3.0579,-0.73393 24.75866,-1.18708 7.29191,1.35665 2.20449,3.39158 2.37411,-1.5262 5.0208,5.21466 2.63415,-4.25888 -2.32197,-10.04953 1.59012,-4.23123 11.55346,-0.11049 3.41992,-2.99039 1.51052,-3.63123 0.0134,-3.83958 4.97375,-10.29703 4.2768,-2.54132 5.70831,5.84976 19.52485,-18.22297 z"
   id="Басманый"
   inkscape:connector-curvature="0"
   sodipodi:nodetypes="ccccccccccccccccccccccccccccccccc" /><path
   d="m 535.24438,568.58876 28.51512,-4.4921 1.95308,4.68739 4.70953,-3.14345 15.89145,15.81504 2.31246,0.81247 -2.09371,2.62494 3.95305,4.6874 3.54684,0.39845 3.74434,3.17445 4.5502,7.13569 -3.27017,4.51621 1.66972,1.03933 -1.14733,3.92288 -1.99998,0.1875 -1.23436,0.16406 -1.2734,1.0234 -0.35157,-1.01559 -4.2343,-0.0469 -11.88811,-4.60558 -0.37958,1.38372 -5.86457,-3.89512 -0.78123,5.85925 -8.78891,0.19531 -2.92964,5.46862 -0.58592,0.58593 -1.86484,0.12035 -0.0883,-0.31565 -5.47782,-2.14277 -1.94392,-0.20095 -12.8904,3.32026 -5.46865,4.49209 -8.59338,7.61701 -7.22643,3.71084 -10.15607,0.58593 -3.9756,-1.48948 -4.18687,-4.62851 -6.46441,-17.89275 -3.82421,-6.80748 8.08114,-6.31897 0.95392,-0.56687 1.91784,4.21122 9.27629,-6.59652 9.07024,-15.46064 11.13173,-7.0088 7.62711,-1.03071 0.003,-0.0865 0.0762,0.006 z"
   id="Пресненский"
   inkscape:connector-curvature="0"
   sodipodi:nodetypes="ccccccccccccccccccccccccccccccccccccccccccccccccc" /><path
   d="m 567.70769,696.2321 13.27542,-19.09286 6.26487,-15.0655 2.23734,-4.62407 3.57992,-5.07155 4.4749,-3.87825 2.23756,-2.53578 2.08829,-9.84477 2.08828,-4.92239 2.834,-3.7291 -1.9969,-4.57494 -1.68739,-2.31242 -6.34429,-1.59384 -1.78919,4.47297 -3.234,-0.4255 -0.34033,3.99979 -5.53167,-1.44674 -11.04479,2.78991 0.80671,2.29095 -3.20852,1.28708 -0.94191,-2.80999 -3.97501,-0.8419 -8.20454,2.51204 -0.0286,0.0774 -7.81235,17.18715 -7.61705,8.00763 -17.18719,12.10911 -0.009,-0.0151 -2.89501,2.69786 -4.65993,10.24354 0.46571,10.24353 22.11662,16.0818 -8.88321,11.62216 8.85662,-11.58719 21.42563,-8.11919 z"
   id="Хамовники"
   inkscape:connector-curvature="0"
   sodipodi:nodetypes="cccccccccccccccccccccccccccccccccccc" /><path
   d="m 604.99033,614.69347 -1.85811,5.86978 -6.41757,-1.74233 -1.7446,4.63808 -3.23377,-0.4255 -0.34056,3.99978 -5.53167,-1.44673 -11.081,2.79298 0.81022,2.27644 -3.14739,1.24414 -0.93751,-2.7744 -4.0161,-0.88655 -8.19606,2.57548 0.16649,-3.63344 -0.67599,-6.24986 -1.3759,-5.72717 1.85658,-0.13209 0.58592,-0.58593 2.92964,-5.46862 8.78891,-0.19529 0.78123,-5.85924 5.85927,3.90615 0.39063,-1.36716 11.88658,4.60724 4.20719,0.0529 0.34883,1.00384 1.36068,-1.04221 3.18595,-0.31215 1.22606,-3.93264 6.51557,3.99877 z"
   id="Арбат"
   inkscape:connector-curvature="0"
   sodipodi:nodetypes="ccccccccccccccccccccccccccccccc" /><path
   d="m 564.8804,1127.9961 -10.32456,1.4197 -4.51692,-2.9684 -9.29236,10.5827 -6.1947,1.8069 -5.67849,-1.5488 -2.83935,3.7428 16.00327,4.7751 -1.67778,7.4853 -9.67942,-1.0325 -1.67778,3.8718 -7.09816,-0.6453 -1.29051,3.3555 -6.32386,-5.2914 -2.19399,5.5495 -6.58196,-1.5487 1.16157,-8.1306 6.06576,0.129 -1.03241,-3.8717 4.90418,-2.4521 2.83913,-7.7434 -4.90418,-6.9692 -3.4845,-4.0007 -5.67848,-3.6137 -10.58267,-2.5811 -0.77453,-7.0982 -4.38797,-3.6136 -14.97065,1.5487 -2.06482,-5.6786 -7.48543,2.3231 -3.4845,-5.4204 -5.16228,-0.3872 -6.71112,1.6778 -4.38798,6.0657 -2.71019,0.3872 -2.83912,-1.4197 0.90324,-9.4212 -2.9683,-2.4521 1.67778,-10.4537 15.61602,-6.5819 3.61366,1.8068 25.0371,-11.4862 3.48449,-6.84 20.52019,-19.3587 14.19633,4.5171 3.09746,0.5162 5.93659,0 6.84006,-8.9049 1.54884,-3.8719 5.70974,3.2816 -0.41852,7.5593 2.45209,1.0325 13.16392,0.9034 3.74283,4.1298 0.25809,5.0333 2.19035,1.3559 13.80719,-16.5496 -1.93037,19.1944 -0.90347,6.1948 -3.7426,16.9066 3.48449,0.3871 -3.48449,23.4886 -4.64608,-1.8069 -0.90347,13.0349 10.58289,9.1631 3.35533,9.163 4.64608,2.5812 6.45302,9.9375 -1.93589,4.517 8.64678,6.0657 -1.29051,8.9049 -4.51691,3.3556 -0.12917,6.711 -6.58195,4.388 -4.12987,-3.0975 0,6.711 -25.0371,-18.1971 z"
   id="Южное Бутово"
   inkscape:connector-curvature="0"
   sodipodi:nodetypes="cccccccccccccccccccccccccccccccccccccccccccccccccccccccccccccccccccccccccccccc" /><path
   d="m 785.49848,748.14809 1.61923,1.96711 2.62003,-1.75931 1.9434,5.1964 4.72872,4.17732 6.19491,3.48455 2.32293,-1.29056 13.16392,4.2589 3.2264,-1.16154 4.00093,5.29139 4.51691,-3.87175 12.45589,4.20719 3.80548,-15.17707 -6.19491,-1.80682 -9.80836,2.96832 -2.06482,1.41963 -4.51714,-3.87172 0.2581,-3.35549 2.83936,0.12905 5.54955,-37.94296 -16.90675,-3.22644 -7.50952,-14.91466 -34.90612,14.97245 -1.43258,3.7591 z"
   id="Кузьминки"
   inkscape:connector-curvature="0"
   sodipodi:nodetypes="ccccccccccccccccccccccccc" /><path
   d="m 976.58199,769.01259 7.30062,2.3727 1.64247,10.40336 38.14582,1.09509 2.9203,1.82515 16.9737,2.19019 -1.4601,-3.28528 -3.1028,-1.0951 0.5477,-5.47543 2.9203,-4.56289 -2.9203,-6.20551 1.6425,-9.49078 -7.3007,-7.1181 -16.7912,-8.94323 0,-7.1181 -11.3161,-1.2776 -4.1978,2.73772 -5.84045,1.82516 -5.47536,13.50611 -7.11805,2.37269 -1.27777,5.29295 -4.92787,6.57053 z"
   id="Некрасовка"
   inkscape:connector-curvature="0"
   sodipodi:nodetypes="ccccccccccccccccccccccc" />
   <path
   d="m 866.86845,616.90911 8.63518,1.9173 -2.71019,4.54615 1.13606,4.4331 18.49933,-6.49003 0.64537,-48.26756 0,-8.13065 -0.2582,-4.52556 -1.16149,-4.25035 -1.54861,-25.29531 -2.96852,0.51624 -6.4528,5.80759 -6.4528,-6.96912 -6.45301,-0.38717 0,1.93586 -5.54933,0.12907 -0.64536,1.16152 -1.67778,0.12905 -0.12894,-1.29057 -20.15716,1.36058 -0.36303,45.3583 0.38704,5.54947 -2.45208,6.06571 1.16157,3.74267 2.7102,-1.03246 7.09815,2.06492 22.97228,6.45289 z"
   id="Ивановское"
   inkscape:connector-curvature="0"
   sodipodi:nodetypes="cccccccccccccccccccccccccccc" /><path
   d="m 839.60845,533.18487 20.18373,-1.32995 0.15318,1.27526 1.58432,-0.11343 0.69976,-1.18121 5.54933,-0.0859 -0.0371,-1.97301 6.50174,0.41746 6.44767,6.94895 6.42289,-5.80024 2.98386,-0.50828 -1.93177,-30.18778 -9.4645,2.98595 -34.3049,0.68795 0.15176,18.39495 -7.6102,-0.19908 -0.004,10.65275 z"
   id="Восточное Измайлово"
   inkscape:connector-curvature="0"
   sodipodi:nodetypes="cccccccccccccccccc" /><path
   d="m 513.82906,275.49083 25.0594,-4.46874 4.58504,-18.89233 2.37276,-33.58278 8.21304,0 -1.82505,-8.57821 4.7453,-1.09509 0,-10.03834 -7.84812,0.73007 -1.09498,-21.17176 22.26679,3.10275 -0.18257,-9.30827 -2.55511,-4.72386 -5.11044,1.62111 -3.66118,-3.08123 -21.16094,11.84196 -6.93548,-12.95858 -13.14112,7.84815 6.02285,17.88648 -29.0197,7.30061 z"
   id="Северный"
   inkscape:connector-curvature="0"
   sodipodi:nodetypes="ccccccccccccccccccccc" /><path
   d="m 654.18846,444.89378 -15.22896,-9.03403 0.51621,-4.64607 -3.61344,0.51623 -3.22662,-1.5487 -0.12894,-7.74346 5.42038,3.09738 -2.13972,-17.22696 -11.8734,0.38717 -1.69218,-24.32946 -5.80878,-3.33688 0.34853,8.6281 -9.80836,19.10053 -13.41359,-1.47117 -5.82967,-2.04836 -4.89059,4.16909 0.17517,3.55574 -3.6663,0.0916 -0.5087,-1.84616 -2.17535,1.87051 4.79089,8.47874 -10.41134,5.82306 -0.62223,6.07039 2.36309,2.65177 10.16466,-1.02917 -0.31279,-5.7212 12.17422,13.07013 2.22502,28.28272 11.80725,13.49291 5.71821,9.8329 17.75566,19.62877 2.66931,1.67954 0.1658,-12.48348 5.74936,-34.69818 z"
   id="Останкинский"
   inkscape:connector-curvature="0"
   sodipodi:nodetypes="ccccccccccccccccccccccccccccccccccc" /><path
   d="m 113.9608,100.02416 5.67068,0.28562 1.67778,3.35549 8.25951,0.77435 2.96853,3.22644 -1.93589,5.67854 3.09723,2.19399 2.25295,0.25907 3.26161,2.69786 7.64936,-1.79542 2.19399,-1.11407 2.45209,3.04993 0.64536,4.64608 2.38189,1.06854 10.52394,13.77309 -1.54885,2.19398 11.48613,3.22644 5.93682,-1.67775 0.12894,-1.16152 -6.32385,-0.12905 0.0237,-6.13496 2.71019,-1.34942 2.65146,-19.15938 3.69512,-1.93587 -4.30528,-3.29762 -0.2581,-5.8076 -1.98235,-4.949716 -10.02,1.465169 -1.61803,-1.348452 6.65115,-6.782191 2.32315,-3.871723 -17.03568,-13.421997 2.45209,-3.61362 -6.7109,-4.387972 -2.71019,2.839266 -14.84169,-10.453658 -0.51621,2.323037 -4.00093,-0.645302 -1.29052,0.645302 0.38727,3.097391 1.41945,2.839265 1.67778,-1.548706 2.19399,-0.516227 2.83936,1.419632 0.7743,1.677758 -0.2581,2.064912 -1.16237,1.889397 -2.4513,-0.985991 -1.29051,0.774352 -1.29051,2.193987 -2.96829,-2.323038 -3.74284,-1.548707 -5.29122,0 -6.96922,-2.58114 -3.09746,1.032456 5.54955,16.777492 z"
   id="Савёлки"
   inkscape:connector-curvature="0"
   sodipodi:nodetypes="ccccccccccccccccccccccccccccccccccccccccccccccccccccccccc" /><path
   d="m 113.96025,99.840569 2.24596,-14.86047 -5.48694,-16.826826 3.11183,-1.023189 6.96948,2.569422 5.34736,1.44e-4 3.69012,1.523689 2.48989,1.963336 0.45555,0.33911 1.26422,-2.188041 1.29526,-0.752556 2.44786,0.994744 1.1956,-1.859568 0.22477,-2.051139 -0.76493,-1.66942 -2.82651,-1.357133 -1.11506,0.245635 -1.04467,0.239342 -1.70846,1.548685 -0.68893,-1.321519 -0.74723,-1.583866 -0.39196,-3.137176 1.29248,-0.628158 3.9986,0.678665 0.52543,-2.326067 -22.94855,-15.737223 -0.38727,-4.9042 -3.4845,-4.129848 -5.03334,1.935861 -10.031047,-4.830729 -5.760195,10.152151 -12.965163,5.033849 2.178245,6.030557 -4.759099,1.310548 2.330994,6.038678 3.34862,0.899353 3.616733,2.073038 1.520984,3.221933 4.230594,-0.257835 1.444276,-1.557099 3.366733,-2.314478 3.031342,1.665894 4.070405,1.948641 1.084318,0.610461 -0.0246,9.445292 -0.0157,2.18699 -0.0159,1.091508 5.589,12.266891 -1.52757,4.476407 3.5746,3.466017 5.76362,1.55863 z"
   id="Матушкино"
   inkscape:connector-curvature="0"
   sodipodi:nodetypes="cccccccccccccccccccccccccccccccccccccccccccccccccccc" /><path
   d="m 66.97187,113.34865 5.400015,6.49104 17.644458,8.43829 21.506437,7.20177 0.10706,-0.84063 2.71019,-10.69945 2.55751,1.38453 1.79547,-1.10268 2.74519,0.86732 2.46356,-3.2492 -2.72167,-2.42933 2.58126,-6.06571 6.84006,-0.25813 1.80672,-5.67853 -2.71019,-3.22644 -8.13058,-0.25813 -2.06504,-4.00077 -5.54933,0.12905 -5.80765,-1.548683 -3.62332,-3.50309 -4.835449,-0.94337 -7.114157,-2.817671 -2.063087,-3.695522 -4.380143,-1.252463 -4.805408,2.149161 z"
   id="Старое Крюково"
   inkscape:connector-curvature="0"
   sodipodi:nodetypes="cccccccccccccccccccccccccc" /><path
   d="m 111.5009,135.54252 4.12965,1.67775 -0.63576,3.64945 -1.64177,-0.76167 -1.43621,1.0888 -1.85037,-0.40129 -0.71227,2.05675 1.88863,-0.34068 -1.03263,7.22723 -3.73034,3.56713 0.76204,4.30539 4.25903,3.48456 1.41946,5.42042 2.58125,0.77434 4.25881,-0.77434 0.5162,-1.41964 2.58125,-0.12905 -1.29051,5.16231 3.2264,0.90339 -2.83936,6.71101 1.67779,2.96833 -1.93588,4.64607 -3.61345,-1.54869 -6.71112,2.71021 -3.09746,-2.4521 -5.29122,1.41964 -2.32315,-3.22644 2.63998,-7.67227 -19.417336,-7.02796 0.645145,6.31148 -5.678487,-1.67775 1.419678,-2.06492 -1.548841,0.12906 0.903472,-5.54949 -2.80414,-2.3809 -8.810937,2.12279 -2.839355,-1.29058 0.774308,-1.93586 -4.387972,-3.61362 -0.833042,5.13955 -3.68387,0.0228 -2.029832,-0.63294 -1.712995,-0.0123 -1.841711,-3.67148 -6.417805,-0.41091 0.586412,-3.6601 -6.558216,1.59518 -2.029831,1.63029 -4.517136,-4.51701 2.017562,-4.5749 -2.791871,-4.20103 3.35556,-26.19871 -2.968294,-11.35707 0.539947,-13.702888 4.364232,-1.654992 -1.372195,-2.076295 2.546038,-2.874369 3.601172,0.304589 -5.114798,-11.391214 2.780399,-1.373145 20.273554,31.477734 8.259739,9.16309 4.25881,5.16231 17.422726,8.38874 22.45607,7.61441 z"
   id="Крюково"
   inkscape:connector-curvature="0"
   sodipodi:nodetypes="cccccccccccccccccccccccccccccccccccccccccccccccccccccccccccccccccc" />
   </svg>